<svg id="SvgjsSvg1011" width="288" height="288" xmlns="http://www.w3.org/2000/svg" version="1.1" xmlns:xlink="http://www.w3.org/1999/xlink" xmlns:svgjs="http://svgjs.com/svgjs"><defs id="SvgjsDefs1012"></defs><g id="SvgjsG1013" transform="matrix(1,0,0,1,0,0)"><svg xmlns="http://www.w3.org/2000/svg" viewBox="0 0 50 50" width="288" height="288"><path d="M23.813 3.008L6.898 34.387l12.395-5.313zm2.375 0l3.742 21.508 6.363-2.73zM25 7.844l-3.516 20.289 6.559-2.809zM37.246 23.55l-6.965 2.984L32.45 39h13.145zm-8.855 3.797l-7.313 3.136L19.598 39h10.824zm-9.508 4.074l-8.781 3.765.32 3.813h7.144zM8.164 36.016l-2.797 1.199L4.407 39h4.007zM4.531 41l4.5 5.398L8.578 41zm6.059 0l.512 6.168 4.93.703L17.221 41zm22.207 0l1.191 6.871 5.184-.742L38.152 41zm7.383 0l.883 5.285L45.468 41z" fill="#6666ff" class="color000 svgShape"></path></svg></g></svg>