<svg xmlns="http://www.w3.org/2000/svg" viewBox="0 0 16 16"><path fill="#FFEB3B" d="M15.686 11.201c-2.139-.352-3.103-2.543-3.142-2.636l-.009-.018c-.109-.222-.135-.405-.075-.544.117-.274.565-.416.861-.51.086-.027.167-.053.234-.079.292-.115.5-.24.638-.381.164-.169.196-.331.194-.436-.005-.256-.201-.484-.514-.595a.93.93 0 0 0-.348-.066.775.775 0 0 0-.324.066c-.25.117-.474.181-.667.19a.612.612 0 0 1-.221-.048l.019-.309.003-.046c.069-1.083.154-2.43-.204-3.23a4.345 4.345 0 0 0-.979-1.401A4.094 4.094 0 0 0 9.981.386 4.627 4.627 0 0 0 8.154 0h-.04l-.275.003c-.355 0-1.066.05-1.829.386a4.071 4.071 0 0 0-1.167.771 4.359 4.359 0 0 0-.975 1.398c-.358.799-.273 2.146-.205 3.228v.002l.022.355a.64.64 0 0 1-.262.049c-.202 0-.442-.064-.713-.191a.64.64 0 0 0-.271-.056.958.958 0 0 0-.479.134c-.186.109-.306.262-.339.433-.021.112-.02.335.228.561.137.124.337.239.596.341.068.027.149.052.234.079.296.094.745.236.862.51.059.139.033.322-.076.544l-.008.018a5.295 5.295 0 0 1-.806 1.246 4.523 4.523 0 0 1-.972.858 3.577 3.577 0 0 1-1.365.531.373.373 0 0 0-.313.39c.003.055.016.11.039.163v.001c.077.179.254.33.542.463.352.163.878.3 1.565.407.035.066.071.231.096.344.026.12.053.244.092.375.042.142.15.312.429.312.106 0 .227-.024.368-.051.206-.04.488-.095.839-.095.195 0 .397.017.6.051.392.065.73.303 1.121.579.572.404 1.22.861 2.21.861l.081-.003c.032.002.073.003.115.003.99 0 1.638-.457 2.21-.86l.001-.001c.391-.275.729-.513 1.121-.578.203-.034.405-.051.6-.051.336 0 .602.043.839.089.155.03.275.045.368.045h.018a.405.405 0 0 0 .411-.307 5.3 5.3 0 0 0 .092-.372c.023-.106.061-.276.095-.342.687-.108 1.213-.244 1.565-.407.287-.133.464-.284.541-.462a.475.475 0 0 0 .04-.165.372.372 0 0 0-.313-.388z"/></svg>