<svg width="35" height="35" viewBox="0 0 35 35" fill="none" xmlns="http://www.w3.org/2000/svg">
<path d="M17.5 0C7.83529 0 0 7.83529 0 17.5C0 25.7634 5.72923 32.6846 13.4313 34.5194C13.0328 34.4245 12.6377 34.3182 12.25 34.197V30.1875C12.25 30.1875 11.5937 30.4062 10.7187 30.4062C8.27077 30.4062 7.25375 28.2221 7 27.125C6.84587 26.4566 6.44337 25.8233 6.01125 25.4363C5.495 24.9759 5.25337 24.9745 5.25 24.817C5.24327 24.4865 5.69288 24.5 5.90625 24.5C7 24.5 7.82923 25.6637 8.21423 26.2655C9.16798 27.751 10.1917 28 10.7187 28C11.375 28 11.9417 27.9017 12.3321 27.7133C12.5125 26.4425 13.0779 25.3104 14 24.5C9.89625 23.6795 7 21.3258 7 17.5C7 15.5292 7.79087 13.718 9.10875 12.2554C8.97414 11.8738 8.75 11.1017 8.75 9.84375C8.75 9.0125 8.80788 7.99212 9.1875 7C9.1875 7 11.6833 7.0175 14.037 9.24673C15.1234 8.93039 16.2858 8.75 17.5 8.75C18.7142 8.75 19.8766 8.93039 20.963 9.24673C23.3167 7.0175 25.8125 7 25.8125 7C26.1941 7.99212 26.25 9.0125 26.25 9.84375C26.25 11.2 26.0696 11.9909 25.9592 12.3321C27.2367 13.7813 28 15.5642 28 17.5C28 21.3258 25.1038 23.6795 21 24.5C22.0958 25.4625 22.75 26.8645 22.75 28.4375V34.197C22.3623 34.3188 21.9679 34.4245 21.5687 34.5194C29.2708 32.6846 35 25.7634 35 17.5C35 7.83529 27.1647 0 17.5 0ZM18.7203 34.9529C18.3171 34.9812 17.9106 35 17.5 35C17.9106 35 18.3164 34.9805 18.7203 34.9529ZM21.3944 34.5598C20.611 34.7382 19.808 34.8634 18.9882 34.9327C19.808 34.8634 20.611 34.7375 21.3944 34.5598ZM17.5 35C17.0894 35 16.6829 34.9812 16.2797 34.9529C16.6836 34.9805 17.0894 35 17.5 35ZM16.0112 34.9327C15.192 34.8634 14.3884 34.7382 13.6056 34.5598C14.389 34.7375 15.192 34.8634 16.0112 34.9327Z" fill="black"/>
</svg>
