<svg width="35" height="35" viewBox="0 0 35 35" fill="none" xmlns="http://www.w3.org/2000/svg">
<path d="M10.3409 0C4.6375 0 0 4.6375 0 10.3409V24.6591C0 30.3625 4.6375 35 10.3409 35H24.6591C30.3625 35 35 30.3625 35 24.6591V10.3409C35 4.6375 30.3625 0 24.6591 0H10.3409ZM27.0455 6.36364C27.9205 6.36364 28.6364 7.07955 28.6364 7.95455C28.6364 8.82955 27.9205 9.54545 27.0455 9.54545C26.1705 9.54545 25.4545 8.82955 25.4545 7.95455C25.4545 7.07955 26.1705 6.36364 27.0455 6.36364ZM17.5 8.75C22.3284 8.75 26.25 12.6716 26.25 17.5C26.25 22.3284 22.3284 26.25 17.5 26.25C12.6716 26.25 8.75 22.3284 8.75 17.5C8.75 12.6716 12.6716 8.75 17.5 8.75ZM17.5 10.3409C13.5545 10.3409 10.3409 13.5545 10.3409 17.5C10.3409 21.4455 13.5545 24.6591 17.5 24.6591C21.4455 24.6591 24.6591 21.4455 24.6591 17.5C24.6591 13.5545 21.4455 10.3409 17.5 10.3409Z" fill="black"/>
</svg>
