<svg width="35" height="35" viewBox="0 0 35 35" fill="none" xmlns="http://www.w3.org/2000/svg">
<path d="M31.8182 0H3.18182C1.42386 0 0 1.42386 0 3.18182V31.8182C0 33.5761 1.42386 35 3.18182 35H31.8182C33.5761 35 35 33.5761 35 31.8182V3.18182C35 1.42386 33.5761 0 31.8182 0ZM11.0632 28.6364H6.37V13.5355H11.0632V28.6364ZM8.66886 11.3766C7.15591 11.3766 5.9325 10.15 5.9325 8.64023C5.9325 7.13045 7.1575 5.90545 8.66886 5.90545C10.177 5.90545 11.4036 7.13205 11.4036 8.64023C11.4036 10.15 10.177 11.3766 8.66886 11.3766ZM28.6427 28.6364H23.9527V21.2927C23.9527 19.5411 23.9209 17.2884 21.5139 17.2884C19.0718 17.2884 18.6964 19.1959 18.6964 21.1655V28.6364H14.0064V13.5355H18.5086V15.5989H18.5723C19.1991 14.412 20.7295 13.16 23.0125 13.16C27.7645 13.16 28.6427 16.2877 28.6427 20.3541V28.6364V28.6364Z" fill="black"/>
</svg>
