<svg width="35" height="29" viewBox="0 0 35 29" fill="none" xmlns="http://www.w3.org/2000/svg">
<path d="M35 3.36607C33.7098 3.9389 32.3268 4.32351 30.8729 4.49809C32.3568 3.60884 33.497 2.20131 34.0316 0.526459C32.6459 1.34752 31.1047 1.9449 29.4708 2.26678C28.1615 0.870158 26.2957 0 24.2308 0C20.2646 0 17.0486 3.21331 17.0486 7.17949C17.0486 7.74141 17.114 8.28969 17.2368 8.81615C11.2684 8.51609 5.97927 5.65739 2.4359 1.31206C1.81669 2.37589 1.46481 3.60884 1.46481 4.92362C1.46481 7.41408 2.7305 9.61266 4.65903 10.9029C3.48063 10.8647 2.37316 10.5401 1.4048 10.0027C1.4048 10.0327 1.4048 10.0627 1.4048 10.0927C1.4048 13.5734 3.88161 16.473 7.16312 17.1358C6.56301 17.2995 5.92744 17.3868 5.27278 17.3868C4.80906 17.3868 4.35897 17.3432 3.9198 17.2559C4.83633 20.1064 7.48773 22.1877 10.6274 22.245C8.17239 24.1708 5.07638 25.3164 1.71031 25.3164C1.1293 25.3164 0.559193 25.2837 0 25.2155C3.17512 27.2559 6.95035 28.4424 11.0065 28.4424C24.2144 28.4424 31.4375 17.5014 31.4375 8.01418C31.4375 7.70322 31.4294 7.38953 31.4184 7.08402C32.8205 6.07201 34.0371 4.80633 35 3.36607Z" fill="black"/>
</svg>
