<svg width="12" height="12" viewBox="0 0 12 12" fill="none" xmlns="http://www.w3.org/2000/svg">
<g clip-path="url(#clip0_4506_5370)">
<path fill-rule="evenodd" clip-rule="evenodd" d="M3.38152 5.606C3.38152 5.754 3.39752 5.8735 3.42552 5.961C3.45752 6.049 3.49752 6.145 3.55352 6.249C3.57352 6.2805 3.58152 6.3125 3.58152 6.3405C3.58152 6.3805 3.55752 6.4205 3.50552 6.4605L3.25402 6.628C3.22362 6.64992 3.18746 6.66243 3.15002 6.664C3.11002 6.664 3.07002 6.644 3.03052 6.608C2.97681 6.55023 2.92876 6.48744 2.88702 6.4205C2.84232 6.34382 2.80095 6.26524 2.76302 6.185C2.45202 6.552 2.06052 6.7355 1.58952 6.7355C1.25452 6.7355 0.987021 6.64 0.791521 6.4485C0.596521 6.2565 0.496521 6.0015 0.496521 5.682C0.496521 5.343 0.616521 5.067 0.859521 4.86C1.10302 4.6525 1.42602 4.5485 1.83702 4.5485C1.97302 4.5485 2.11252 4.5605 2.26002 4.5805C2.40802 4.6005 2.56002 4.6325 2.71902 4.6685V4.377C2.71902 4.0735 2.65552 3.862 2.53152 3.7385C2.40402 3.6145 2.18852 3.555 1.88152 3.555C1.74152 3.555 1.59752 3.5705 1.45002 3.6065C1.30252 3.6425 1.15852 3.6865 1.01902 3.7425C0.973479 3.76272 0.926722 3.78009 0.879021 3.7945C0.858457 3.80113 0.837103 3.80499 0.815521 3.806C0.759521 3.806 0.731521 3.766 0.731521 3.6825V3.487C0.731521 3.423 0.739521 3.375 0.759521 3.347C0.789724 3.3107 0.828108 3.28208 0.871521 3.2635C1.03143 3.1841 1.20007 3.12369 1.37402 3.0835C1.57753 3.0314 1.78696 3.00602 1.99702 3.008C2.47202 3.008 2.81902 3.116 3.04252 3.3315C3.26252 3.5465 3.37352 3.874 3.37352 4.313V5.606H3.38152ZM1.76152 6.213C1.89302 6.213 2.02852 6.189 2.17252 6.141C2.31889 6.09042 2.44952 6.00253 2.55152 5.886C2.61599 5.81229 2.66253 5.72468 2.68752 5.63C2.71102 5.5345 2.72752 5.4185 2.72752 5.283V5.1155C2.60639 5.08597 2.4837 5.06327 2.36002 5.0475C2.23564 5.0317 2.1104 5.02368 1.98502 5.0235C1.71752 5.0235 1.52202 5.0755 1.39002 5.1835C1.25852 5.291 1.19502 5.4425 1.19502 5.642C1.19502 5.8295 1.24252 5.9695 1.34252 6.065C1.43802 6.165 1.57752 6.213 1.76152 6.213ZM4.96652 6.644C4.89452 6.644 4.84652 6.632 4.81452 6.604C4.78252 6.58 4.75452 6.524 4.73052 6.4485L3.79302 3.363C3.77478 3.31126 3.7627 3.25756 3.75702 3.203C3.75702 3.139 3.78902 3.103 3.85252 3.103H4.24402C4.31952 3.103 4.37152 3.1155 4.39902 3.143C4.43152 3.167 4.45552 3.223 4.47902 3.299L5.15002 5.941L5.77252 3.299C5.79252 3.219 5.81652 3.167 5.84802 3.143C5.89599 3.11358 5.95185 3.09962 6.00802 3.103H6.32702C6.40302 3.103 6.45502 3.1155 6.48702 3.143C6.51852 3.167 6.54702 3.223 6.56252 3.299L7.19302 5.973L7.88352 3.299C7.90752 3.219 7.93552 3.167 7.96352 3.143C8.00984 3.11359 8.06427 3.09959 8.11902 3.103H8.49052C8.55402 3.103 8.59052 3.1355 8.59052 3.203C8.59052 3.223 8.58602 3.243 8.58202 3.267C8.57576 3.30112 8.56639 3.33459 8.55402 3.367L7.59252 6.452C7.56852 6.532 7.54052 6.5835 7.50852 6.6075C7.46347 6.6364 7.41047 6.6504 7.35702 6.6475H7.01352C6.93852 6.6475 6.88602 6.6355 6.85352 6.6075C6.82202 6.5795 6.79402 6.5275 6.77852 6.4475L6.16002 3.8735L5.54502 6.4435C5.52502 6.5235 5.50152 6.5755 5.47002 6.6035C5.43752 6.6315 5.38152 6.6435 5.31002 6.6435L4.96702 6.644H4.96652ZM10.0945 6.7515C9.88702 6.7515 9.67952 6.7275 9.48002 6.68C9.28052 6.632 9.12502 6.58 9.02102 6.52C8.95702 6.4845 8.91352 6.4445 8.89752 6.4085C8.88193 6.37321 8.87376 6.33508 8.87352 6.2965V6.093C8.87352 6.0095 8.90552 5.9695 8.96502 5.9695C8.98902 5.9695 9.01302 5.9735 9.03702 5.9815C9.06102 5.9895 9.09702 6.0055 9.13702 6.0215C9.27252 6.0815 9.42002 6.129 9.57602 6.161C9.73602 6.193 9.89102 6.209 10.051 6.209C10.302 6.209 10.498 6.165 10.6335 6.077C10.6985 6.03776 10.7519 5.98202 10.7883 5.91546C10.8248 5.84889 10.843 5.77386 10.841 5.698C10.8425 5.64662 10.8337 5.59545 10.8153 5.54748C10.7968 5.4995 10.769 5.45566 10.7335 5.4185C10.6615 5.343 10.5255 5.275 10.33 5.211L9.75152 5.031C9.46002 4.9395 9.24452 4.804 9.11302 4.6245C8.98432 4.45884 8.914 4.25528 8.91302 4.0455C8.91302 3.878 8.94952 3.7305 9.02102 3.6025C9.09302 3.475 9.18852 3.363 9.30852 3.2755C9.42852 3.1835 9.56352 3.1155 9.72352 3.068C9.88352 3.02 10.051 3 10.2265 3C10.314 3 10.4065 3.004 10.494 3.016C10.5855 3.028 10.669 3.044 10.753 3.06C10.833 3.08 10.909 3.1 10.9805 3.1235C11.0525 3.1475 11.1085 3.1715 11.1485 3.1955C11.1956 3.21922 11.2367 3.25343 11.2685 3.2955C11.2943 3.33433 11.3068 3.38048 11.304 3.427V3.6145C11.304 3.6985 11.272 3.7425 11.212 3.7425C11.1589 3.73641 11.1075 3.72011 11.0605 3.6945C10.8194 3.58799 10.5581 3.53494 10.2945 3.539C10.067 3.539 9.88702 3.5745 9.76352 3.6505C9.63952 3.7265 9.57602 3.842 9.57602 4.0055C9.57602 4.1175 9.61602 4.2135 9.69602 4.289C9.77602 4.365 9.92302 4.441 10.1345 4.509L10.7015 4.688C10.9885 4.78 11.1965 4.908 11.32 5.0715C11.4435 5.235 11.5035 5.4225 11.5035 5.63C11.5035 5.8015 11.4675 5.9575 11.4 6.093C11.3291 6.22963 11.2297 6.34948 11.1085 6.4445C10.9845 6.5445 10.837 6.616 10.6655 6.668C10.4855 6.7235 10.2985 6.7515 10.0945 6.7515Z" fill="white"/>
<path fill-rule="evenodd" clip-rule="evenodd" d="M0.188999 7.73751C1.881 8.71901 3.969 9.31401 6.1275 9.31401C7.5845 9.31401 9.1845 9.0105 10.6575 8.388C10.8775 8.288 11.0645 8.5315 10.849 8.6915C9.536 9.6615 7.628 10.176 5.988 10.176C3.689 10.176 1.618 9.32601 0.052999 7.91301C-0.070501 7.80151 0.040999 7.64951 0.188999 7.73751ZM11.9545 7.6375C12.098 7.8175 11.9145 9.0505 11.212 9.641C11.1045 9.733 11.0005 9.68501 11.0485 9.56551L11.136 9.346C11.3075 8.906 11.537 8.247 11.396 8.0685C11.228 7.8535 10.286 7.96501 9.859 8.01701C9.7315 8.03301 9.7115 7.921 9.8275 7.837C10.5775 7.3105 11.811 7.462 11.9545 7.6375Z" fill="#FF9900"/>
</g>
<defs>
<clipPath id="clip0_4506_5370">
<rect width="12" height="12" fill="white"/>
</clipPath>
</defs>
</svg>
