<svg xmlns="http://www.w3.org/2000/svg" shape-rendering="geometricPrecision" text-rendering="geometricPrecision" image-rendering="optimizeQuality" fill-rule="evenodd" clip-rule="evenodd" viewBox="0 0 346 512.36"><g fill-rule="nonzero"><path fill="#00B6FF" d="M172.53 246.9c0-42.04 34.09-76.11 76.12-76.11h11.01c.3.01.63-.01.94-.01 47.16 0 85.4 38.25 85.4 85.4 0 47.15-38.24 85.39-85.4 85.39-.31 0-.64-.01-.95-.01l-11 .01c-42.03 0-76.12-34.09-76.12-76.12V246.9z"/><path fill="#24CB71" d="M0 426.98c0-47.16 38.24-85.41 85.4-85.41l87.13.01v84.52c0 47.65-39.06 86.26-86.71 86.26C38.67 512.36 0 474.13 0 426.98z"/><path fill="#FF7237" d="M172.53.01v170.78h87.13c.3-.01.63.01.94.01 47.16 0 85.4-38.25 85.4-85.4C346 38.24 307.76 0 260.6 0c-.31 0-.64.01-.95.01h-87.12z"/><path fill="#FF3737" d="M0 85.39c0 47.16 38.24 85.4 85.4 85.4h87.13V.01H85.39C38.24.01 0 38.24 0 85.39z"/><path fill="#874FFF" d="M0 256.18c0 47.16 38.24 85.4 85.4 85.4h87.13V170.8H85.39C38.24 170.8 0 209.03 0 256.18z"/></g></svg>