<svg viewBox="0 0 512 512" xmlns="http://www.w3.org/2000/svg" fill-rule="evenodd" clip-rule="evenodd" stroke-linejoin="round" stroke-miterlimit="2"><path d="M256.417 508.37c-139.417 0-252.5-113.082-252.5-252.54C3.918 116.375 117 3.332 256.418 3.332c139.458 0 252.5 113.043 252.5 252.5S395.875 508.37 256.417 508.37zM98.837 225.507c-16.702 0-30.284 13.583-30.284 30.363 0 16.702 13.582 30.284 30.284 30.284 16.78 0 30.442-13.582 30.442-30.284 0-16.78-13.661-30.363-30.442-30.363zm216.688 137.957c-14.412 8.291-19.426 26.888-11.135 41.3 8.45 14.649 27.007 19.584 41.419 11.174 14.57-8.252 19.584-26.889 11.095-41.38-8.37-14.608-26.889-19.544-41.38-11.055v-.04zM164.775 255.87c0-29.968 14.925-56.54 37.707-72.571l-22.15-37.155c-26.612 17.729-46.394 44.854-54.567 76.6 9.674 7.896 15.675 19.741 15.675 33.126 0 13.306-6.001 25.23-15.675 33.048 8.173 31.745 27.994 58.831 54.567 76.52l22.15-37.075c-22.782-15.991-37.707-42.603-37.707-72.493zm88.602-88.72c46.394 0 84.377 35.575 88.326 80.942l43.274-.79c-2.172-33.324-16.741-63.53-39.168-85.403-11.648 4.264-25.033 3.672-36.483-3.08-11.53-6.634-18.676-17.807-20.69-29.969a132.869 132.869 0 00-35.259-4.738c-20.926 0-40.708 4.896-58.397 13.583l21.124 37.786c11.293-5.33 24.046-8.292 37.273-8.292v-.04zm0 177.362c-13.266 0-25.98-3.001-37.273-8.292l-21.124 37.786c17.65 8.647 37.47 13.543 58.397 13.543 12.28 0 24.046-1.58 35.26-4.738 1.973-12.2 9.16-23.454 20.689-30.047 11.569-6.594 24.835-7.305 36.483-2.883 22.466-22.19 36.957-52.197 39.168-85.561l-43.274-.632c-3.949 45.249-41.932 80.784-88.326 80.784v.04zm62.148-196.235c14.49 8.37 33.008 3.435 41.379-11.135 8.489-14.49 3.475-33.127-11.016-41.497-14.451-8.292-33.009-3.357-41.419 11.173-8.41 14.452-3.395 33.048 11.056 41.42v.039z" fill="#e95420" fill-rule="nonzero"/></svg>