<svg width="18" height="27" viewBox="0 0 18 27" fill="none" xmlns="http://www.w3.org/2000/svg">
<path d="M0.127197 1.94566V13.2121L0.793069 25.8471C2.81909 26.2531 5.15068 26.4741 7.74904 26.54V20.8991C7.67421 18.1864 8.9616 16.9551 11.2967 16.5567L16.695 15.8528L15.1692 12.0973C12.5342 11.685 10.2448 11.1889 9.07662 10.6034C7.59106 9.82457 7.11365 8.06254 8.38373 6.73495C8.8064 6.29288 9.94621 5.76005 11.2378 5.75312H17.399L16.2841 1.65257C13.8777 0.895234 9.66212 0.575116 5.25254 0.209961C3.67897 0.503748 1.99801 1.09687 0.127197 1.94566Z" fill="#FB8C00"/>
<path d="M11.2968 16.5567L16.6951 15.8527L15.1694 12.0973C12.5343 11.685 10.245 11.1889 9.07673 10.6034C7.59117 9.82456 7.11376 8.06253 8.38384 6.73494C8.8065 6.29287 9.94631 5.76004 11.2379 5.75311H16.948C14.4134 5.21196 12.3257 4.74633 10.2318 4.71377C6.28922 4.65279 3.76916 6.64001 3.47606 9.91048C3.28968 11.9864 3.46844 14.2293 4.28467 16.8394C5.07527 19.3706 6.15826 22.7921 7.74915 26.3355V20.8991C7.67431 18.1864 8.96171 16.9551 11.2968 16.5567Z" fill="#FFCC80"/>
<path d="M7.74902 13.7215C7.74902 14.6784 8.52437 15.4537 9.48126 15.4537H16.5328L15.1692 12.0973C14.9447 12.062 14.7265 12.0253 14.5075 11.9893H9.48126C8.52437 11.9893 7.74902 12.7646 7.74902 13.7215Z" fill="#FB8C00"/>
<path d="M4.9198 0.440674C4.9198 0.440674 4.65649 0.794743 4.29272 1.46824C4.11327 1.80568 3.9054 2.22072 3.70377 2.71198C3.49867 3.20186 3.29704 3.76518 3.10164 4.38671C2.90347 5.00685 2.73995 5.6942 2.59167 6.42382C2.53277 6.79175 2.47318 7.16937 2.41152 7.55532C2.37549 7.94472 2.31451 8.33967 2.28125 8.74363C2.21127 9.55155 2.19464 10.3941 2.19603 11.2415C2.21058 12.0938 2.2861 12.9495 2.41429 13.8066C2.65334 15.5201 3.08917 17.2053 3.63725 18.7317C4.1881 20.2568 4.88307 21.6169 5.52054 22.7644C6.16354 23.9076 6.70885 24.8597 7.11558 25.511C7.51884 26.1658 7.74888 26.5399 7.74888 26.5399C7.74888 26.5399 7.46618 26.2025 7.00472 25.5865C6.55087 24.9657 5.88915 24.0836 5.18656 22.9625C4.49436 21.8407 3.67951 20.5083 3.06769 18.9493C2.44685 17.3993 1.98816 15.6677 1.72902 13.905C1.60568 13.025 1.53501 12.127 1.52808 11.2519C1.53223 10.3705 1.58697 9.51344 1.67705 8.68266C1.7692 7.85326 1.92649 7.06059 2.10179 6.31711C2.29372 5.5771 2.49813 4.88421 2.7351 4.2613C2.96098 3.63492 3.22012 3.0806 3.47234 2.6032C3.72039 2.12372 3.96707 1.72253 4.17771 1.39895C4.60938 0.756634 4.9198 0.440674 4.9198 0.440674Z" fill="#FFCC80"/>
</svg>
