<svg width="382" height="347" viewBox="0 0 382 347" fill="none" xmlns="http://www.w3.org/2000/svg">
<path d="M34.721 34.7V205.771L0.669497 324.879C-0.0695502 327.46 -0.198777 330.178 0.291991 332.818C0.782759 335.458 1.88013 337.949 3.4977 340.093C5.11528 342.237 7.20892 343.977 9.61381 345.176C12.0187 346.374 14.6692 346.999 17.3566 347H364.643C367.331 346.999 369.981 346.374 372.386 345.176C374.791 343.977 376.885 342.237 378.502 340.093C380.12 337.949 381.217 335.458 381.708 332.818C382.199 330.178 382.07 327.46 381.331 324.879L347.279 205.771V34.7C347.279 25.497 343.62 16.6709 337.107 10.1634C330.594 3.65588 321.761 0 312.55 0H69.4496C60.239 0 51.4056 3.65588 44.8928 10.1634C38.3799 16.6709 34.721 25.497 34.721 34.7ZM40.3817 312.3L65.178 225.55H316.822L341.618 312.3H40.3817ZM312.55 190.85H69.4496V34.7H312.55V190.85Z" fill="black"/>
</svg>
