<svg width="201" height="354" viewBox="0 0 201 354" fill="none" xmlns="http://www.w3.org/2000/svg">
<path fill-rule="evenodd" clip-rule="evenodd" d="M200.676 317.543C201.43 341.437 184.335 353.079 153.728 353.572C123.122 354.065 71.4506 352.422 42.2632 352.886C13.0716 353.353 1.20217 336.801 0.629535 313.239C-1.18099 238.604 1.48006 56.305 1.57269 40.8187C1.72427 14.1239 12.2001 1.24396 35.2864 0.873431C53.9053 0.574483 139.737 -0.107632 163.602 0.0144733C190.819 0.166052 200.491 17.9303 200.882 42.6629C201.097 56.3471 198.411 245.551 200.676 317.543ZM146.773 26.6418C147.194 36.5661 143.91 50.9197 131.901 50.9197C119.893 50.9197 76.5453 51.6061 70.4569 51.6061C56.1327 51.6061 51.9685 36.6461 51.9685 27.7534C34.7643 27.8882 25.7116 28.8524 25.7116 28.8524L31.0001 323.387L171.282 323.037L172.617 26.8313C172.617 26.8313 168.213 26.4692 146.773 26.6418Z" fill="black"/>
</svg>
