<svg width="50" height="50" viewBox="0 0 50 50" fill="none" xmlns="http://www.w3.org/2000/svg">
<path d="M25 0C11.1937 0 0 11.1937 0 25C0 36.7146 8.06667 46.5167 18.9417 49.2292C18.825 48.8917 18.75 48.5 18.75 48.0146V43.7417C17.7354 43.7417 16.0354 43.7417 15.6083 43.7417C13.8979 43.7417 12.3771 43.0062 11.6396 41.6396C10.8208 40.1208 10.6792 37.7979 8.65 36.3771C8.04792 35.9042 8.50625 35.3646 9.2 35.4375C10.4812 35.8 11.5437 36.6792 12.5437 37.9833C13.5396 39.2896 14.0083 39.5854 15.8687 39.5854C16.7708 39.5854 18.1208 39.5333 19.3917 39.3333C20.075 37.5979 21.2562 36 22.7 35.2458C14.375 34.3896 10.4021 30.2479 10.4021 24.625C10.4021 22.2042 11.4333 19.8625 13.1854 17.8896C12.6104 15.9312 11.8875 11.9375 13.4063 10.4167C17.1521 10.4167 19.4167 12.8458 19.9604 13.5021C21.8271 12.8625 23.8771 12.5 26.0312 12.5C28.1896 12.5 30.2479 12.8625 32.1187 13.5062C32.6562 12.8542 34.9229 10.4167 38.6771 10.4167C40.2021 11.9396 39.4708 15.95 38.8896 17.9042C40.6312 19.8729 41.6563 22.2083 41.6563 24.625C41.6563 30.2437 37.6896 34.3833 29.3771 35.2437C31.6646 36.4375 33.3333 39.7917 33.3333 42.3187V48.0146C33.3333 48.2313 33.2854 48.3875 33.2604 48.5729C43.0021 45.1583 50 35.9083 50 25C50 11.1937 38.8062 0 25 0Z" fill="white"/>
</svg>
