<svg width="50" height="50" viewBox="0 0 50 50" fill="none" xmlns="http://www.w3.org/2000/svg">
<path d="M14.7727 0C6.625 0 0 6.625 0 14.7727V35.2273C0 43.375 6.625 50 14.7727 50H35.2273C43.375 50 50 43.375 50 35.2273V14.7727C50 6.625 43.375 0 35.2273 0H14.7727ZM38.6364 9.09091C39.8864 9.09091 40.9091 10.1136 40.9091 11.3636C40.9091 12.6136 39.8864 13.6364 38.6364 13.6364C37.3864 13.6364 36.3636 12.6136 36.3636 11.3636C36.3636 10.1136 37.3864 9.09091 38.6364 9.09091ZM25 12.5C31.8977 12.5 37.5 18.1023 37.5 25C37.5 31.8977 31.8977 37.5 25 37.5C18.1023 37.5 12.5 31.8977 12.5 25C12.5 18.1023 18.1023 12.5 25 12.5ZM25 14.7727C19.3636 14.7727 14.7727 19.3636 14.7727 25C14.7727 30.6364 19.3636 35.2273 25 35.2273C30.6364 35.2273 35.2273 30.6364 35.2273 25C35.2273 19.3636 30.6364 14.7727 25 14.7727Z" fill="white"/>
</svg>
