<svg width="50" height="50" viewBox="0 0 50 50" fill="none" xmlns="http://www.w3.org/2000/svg">
<path d="M44.0476 0H5.95238C2.66667 0 0 2.66667 0 5.95238V44.0476C0 47.3333 2.66667 50 5.95238 50H44.0476C47.3333 50 50 47.3333 50 44.0476V5.95238C50 2.66667 47.3333 0 44.0476 0ZM15.4762 19.0476V41.6667H8.33333V19.0476H15.4762ZM8.33333 12.4643C8.33333 10.7976 9.7619 9.52381 11.9048 9.52381C14.0476 9.52381 15.3929 10.7976 15.4762 12.4643C15.4762 14.131 14.1429 15.4762 11.9048 15.4762C9.7619 15.4762 8.33333 14.131 8.33333 12.4643ZM41.6667 41.6667H34.5238C34.5238 41.6667 34.5238 30.6429 34.5238 29.7619C34.5238 27.381 33.3333 25 30.3571 24.9524H30.2619C27.381 24.9524 26.1905 27.4048 26.1905 29.7619C26.1905 30.8452 26.1905 41.6667 26.1905 41.6667H19.0476V19.0476H26.1905V22.0952C26.1905 22.0952 28.4881 19.0476 33.1071 19.0476C37.8333 19.0476 41.6667 22.2976 41.6667 28.881V41.6667Z" fill="white"/>
</svg>
