<svg fill="#000000" xmlns="http://www.w3.org/2000/svg"  viewBox="0 0 50 50" width="50px" height="50px"><path d="M 23.8125 3.007813 L 6.898438 34.386719 L 19.292969 29.074219 Z M 26.1875 3.007813 L 29.929688 24.515625 L 36.292969 21.785156 Z M 25 7.84375 L 21.484375 28.132813 L 28.042969 25.324219 Z M 37.246094 23.550781 L 30.28125 26.535156 L 32.449219 39 L 45.59375 39 Z M 28.390625 27.347656 L 21.078125 30.484375 L 19.597656 39 L 30.421875 39 Z M 18.882813 31.421875 L 10.101563 35.1875 L 10.421875 39 L 17.566406 39 Z M 8.164063 36.015625 L 5.367188 37.214844 L 4.40625 39 L 8.414063 39 Z M 4.53125 41 L 9.03125 46.398438 L 8.578125 41 Z M 10.589844 41 L 11.101563 47.167969 L 16.03125 47.871094 L 17.222656 41 Z M 32.796875 41 L 33.988281 47.871094 L 39.171875 47.128906 L 38.152344 41 Z M 40.179688 41 L 41.0625 46.285156 L 45.46875 41 Z"/></svg>