<svg width="24" height="23" viewBox="0 0 24 23" fill="none" xmlns="http://www.w3.org/2000/svg">
<path d="M5.82877 3.833C5.22877 5.177 5.46577 7.585 5.56177 9.269C4.91377 9.628 4.08177 8.998 3.61077 8.998C3.12077 8.998 2.53577 9.32 2.44377 9.8C2.37777 10.146 2.53277 10.65 3.64477 11.089C4.07477 11.259 5.09777 11.459 5.33477 12.017C5.66777 12.801 3.62477 16.42 0.416768 16.948C0.165768 16.989 -0.0132325 17.213 0.000767532 17.467C0.0567675 18.442 2.24277 18.824 3.21177 18.974C3.31077 19.108 3.39077 19.674 3.51777 20.105C3.57477 20.298 3.72177 20.529 4.09977 20.529C4.59277 20.529 5.41177 20.149 6.83777 20.385C8.23577 20.618 9.54977 22.6 12.0728 22.6C14.4178 22.6 15.8168 20.609 17.1628 20.385C17.9418 20.256 18.6108 20.297 19.3588 20.443C19.8738 20.544 20.3358 20.6 20.4828 20.094C20.6118 19.657 20.6908 19.102 20.7878 18.971C21.7478 18.822 23.9438 18.441 23.9988 17.466C24.0128 17.212 23.8338 16.989 23.5828 16.947C20.4288 16.427 18.3238 12.819 18.6648 12.016C18.9008 11.459 19.9168 11.261 20.3548 11.088C21.1688 10.767 21.5768 10.372 21.5678 9.915C21.5568 9.33 20.8528 8.981 20.3348 8.981C19.8078 8.981 19.0508 9.605 18.4378 9.267C18.5338 7.569 18.7698 5.172 18.1708 3.829C17.0358 1.286 14.5108 0 11.9868 0C9.47877 0 6.97277 1.268 5.82877 3.833Z" fill="#020202"/>
</svg>
