<svg width="21" height="26" viewBox="0 0 21 26" fill="none" xmlns="http://www.w3.org/2000/svg">
<path d="M18.3025 12.4563C17.8686 12.1296 17.4024 11.8482 16.9112 11.6163C16.4112 7.88 13.9113 6.7025 12.7738 6.3575C10.3013 5.6075 7.46 6.50625 6.1675 8.445C6.09462 8.55433 6.04398 8.67694 6.01848 8.80583C5.99298 8.93473 5.99312 9.06738 6.01889 9.19622C6.07093 9.45643 6.22421 9.68531 6.445 9.8325C6.66579 9.9797 6.93602 10.0332 7.19622 9.98111C7.32506 9.95534 7.44757 9.90445 7.55674 9.83134C7.66591 9.75822 7.75962 9.66433 7.8325 9.555C8.62875 8.36 10.5825 7.785 12.1938 8.27125C13.4375 8.64625 14.2962 9.55875 14.7125 10.8962C14.0825 10.7763 13.4426 10.7165 12.8013 10.7175C11.0613 10.7175 9.4325 11.1662 8.2175 11.98C6.7875 12.9462 6 14.375 6 16C6 18.5725 7.9825 20.44 10.7137 20.44C11.5169 20.4345 12.3108 20.2679 13.0484 19.9499C13.7859 19.6319 14.4521 19.169 15.0075 18.5888C15.8125 17.7513 16.7575 16.2938 16.9587 13.9513C17.0062 13.9838 17.0513 14.0175 17.0963 14.0513C18.36 15.0063 19 16.335 19 18C19 20.42 16.4575 24 11 24C7.65875 24 5.315 22.9187 3.8325 20.695C2.61625 18.875 2 16.2825 2 13C2 9.7175 2.61625 7.125 3.8325 5.305C5.315 3.08125 7.65875 2 11 2C15.1163 2 17.75 3.65625 19.0662 7.065C19.1124 7.18896 19.1827 7.30254 19.273 7.39915C19.3634 7.49577 19.472 7.5735 19.5926 7.62785C19.7131 7.68219 19.8433 7.71208 19.9755 7.71577C20.1078 7.71946 20.2394 7.69688 20.3628 7.64934C20.4863 7.6018 20.599 7.53025 20.6946 7.43882C20.7902 7.3474 20.8667 7.23792 20.9197 7.11672C20.9727 6.99552 21.0011 6.86502 21.0033 6.73277C21.0055 6.60051 20.9814 6.46914 20.9325 6.34625C19.335 2.195 15.9 0 11 0C7 0 4.02375 1.41125 2.1675 4.195C0.72875 6.35375 0 9.315 0 13C0 16.685 0.72875 19.6463 2.1675 21.805C4.02375 24.5888 7 26 11 26C14.7587 26 17.1125 24.565 18.425 23.3625C20.0375 21.885 21 19.875 21 18C21 15.7075 20.0675 13.79 18.3025 12.4563ZM13.5662 17.2062C13.1977 17.5928 12.7554 17.9015 12.2654 18.1141C11.7755 18.3267 11.2478 18.4388 10.7137 18.4438C9.3625 18.4438 8 17.6937 8 16.0037C8 14.425 9.5 12.7275 12.8013 12.7275C13.5447 12.7255 14.2847 12.8273 15 13.03C15 14.79 14.5 16.2325 13.5662 17.2025V17.2062Z" fill="black"/>
</svg>
