<svg width="22" height="25" viewBox="0 0 22 25" fill="none" xmlns="http://www.w3.org/2000/svg">
<path d="M21.8518 22.4638L14.0268 10.1663L21.7481 1.6725C21.9227 1.47566 22.0127 1.21791 21.9986 0.955153C21.9844 0.692393 21.8673 0.445794 21.6725 0.26882C21.4778 0.0918457 21.2212 -0.0012398 20.9583 0.00974476C20.6953 0.0207293 20.4474 0.134898 20.2681 0.3275L12.9131 8.4175L7.85181 0.46375C7.76156 0.321693 7.63692 0.204713 7.48942 0.123647C7.34193 0.0425814 7.17637 5.21628e-05 7.00806 1.18294e-07H1.00806C0.828765 -8.70794e-05 0.652741 0.0480342 0.498423 0.139325C0.344105 0.230615 0.217171 0.361717 0.13091 0.518902C0.0446503 0.676088 0.00223821 0.853574 0.00811486 1.03278C0.0139915 1.21198 0.0679408 1.3863 0.164314 1.5375L7.98931 13.8337L0.268064 22.3337C0.177897 22.4306 0.107851 22.5444 0.061986 22.6685C0.0161206 22.7927 -0.00465234 22.9247 0.000871701 23.0569C0.00639575 23.1891 0.038107 23.3189 0.0941668 23.4388C0.150227 23.5586 0.22952 23.6662 0.327452 23.7552C0.425384 23.8442 0.540006 23.9129 0.664675 23.9572C0.789344 24.0016 0.921581 24.0208 1.05372 24.0137C1.18586 24.0066 1.31528 23.9733 1.43446 23.9158C1.55365 23.8583 1.66025 23.7777 1.74806 23.6787L9.10306 15.5888L14.1643 23.5425C14.2553 23.6834 14.3803 23.7991 14.5277 23.8791C14.6752 23.959 14.8403 24.0006 15.0081 24H21.0081C21.1872 23.9999 21.363 23.9518 21.5171 23.8606C21.6712 23.7693 21.798 23.6384 21.8843 23.4814C21.9705 23.3244 22.013 23.1472 22.0072 22.9681C22.0015 22.7891 21.9479 22.6149 21.8518 22.4638ZM15.5568 22L2.82931 2H6.45431L19.1868 22H15.5568Z" fill="black"/>
</svg>
