<svg width="50" height="50" viewBox="0 0 50 50" fill="none" xmlns="http://www.w3.org/2000/svg">
<g clip-path="url(#clip0_138_1064)">
<path d="M23.125 3.125C17.7396 12.8125 13.0833 22.8438 9.14583 33.2083C8.82292 34.0521 8.54167 34.8125 8.30208 35.4688C7.67708 37.1458 7.32292 38.1354 7.21875 38.3021C7.45833 37.4375 7.70833 36.5208 7.96875 35.5938C8.15625 34.9375 8.34375 34.2708 8.53125 33.5938C9.98958 28.4896 11.9167 23.0417 13.1771 19.3438C15.0677 14.1458 17.2927 9.10208 19.8604 4.21146C20.2115 3.54271 20.9115 3.125 21.6677 3.125H23.125Z" fill="url(#paint0_linear_138_1064)"/>
<path d="M14.0833 31.3542C15.4583 28.8437 24.4063 10.5729 25.0104 9.45833C25.1458 9.19792 25.3125 9.03125 25.5 9.03125C25.6875 9.03125 25.8958 9.1875 26.125 9.57292C26.5417 10.2708 30.4792 18.4167 31.75 21.2708C30.5 21.9062 16.9375 29.1042 14.0833 31.3542ZM44.625 46.8437C44.6354 46.8437 44.6354 46.8437 44.6458 46.8333C45.2708 46.375 45.5938 45.5521 45.375 44.75C45.2188 44.1875 45.0625 43.6354 44.9583 43.375C44.8542 43.0937 44.5104 41.7812 43.9896 39.8437C43.3542 37.9792 42.6771 36.1042 41.9688 34.2292C41.0833 31.9167 40.1563 29.6146 39.2188 27.375C38.1667 24.8646 37.1042 22.4271 36.0625 20.1146C32.3958 12 29.0208 5.45833 27.8021 3.125H23.125C17.7396 12.8125 13.0833 22.8437 9.14584 33.2083C8.82293 34.0521 8.54168 34.8125 8.30209 35.4687C7.67709 37.1354 7.32293 38.1354 7.21876 38.3021L7.08334 38.8333C6.41668 41.2604 5.87501 43.375 5.53126 44.875C5.36459 45.6042 5.63543 46.3333 6.17709 46.7917C6.64584 47 7.20834 47.2083 7.85418 47.375C8.47918 45.2708 10.5833 39.9375 11.125 38.5104L11.1771 38.3958V38.3854C11.5417 37.3958 12.1667 35.9375 12.6979 34.5104C19.8229 31.6563 27.1354 29.4271 34.6458 27.8437C35.9063 30.5521 37.2708 33.3125 37.7813 34.4375C37.8021 34.4688 37.8125 34.4896 37.8229 34.5208C37.8333 34.5417 37.8542 34.5729 37.8542 34.5937C37.8646 34.6146 37.875 34.6458 37.8854 34.6667C37.9167 34.7292 37.9375 34.7812 37.9583 34.8229C38.5208 36.1146 41.1771 41.5208 41.9792 43.4271C42.3333 44.2604 42.6563 45.1771 42.9167 45.9375C42.9479 46.0208 42.9792 46.1042 43 46.1875C43.1354 46.5937 43.25 46.9583 43.3333 47.2083C43.3333 47.2292 43.3438 47.25 43.3438 47.2604H43.3542L44.625 46.8437Z" fill="url(#paint1_linear_138_1064)"/>
<path d="M43.9895 39.8437C43.3541 37.9792 42.677 36.1042 41.9687 34.2292C41.0833 31.9167 40.1562 29.6146 39.2187 27.375C38.1666 24.8646 37.1041 22.4271 36.0625 20.1146C32.3958 12 29.0208 5.45833 27.7916 3.125H28.7687C29.6708 3.125 30.5125 3.60625 30.9531 4.39375C32.7948 7.6875 34.4073 11.0896 35.7916 14.6146C36.3437 15.9479 37.0729 17.5729 37.677 19.375C38.4895 21.7812 39.7187 24.5 40.5104 27.2083C41.2083 29.6146 41.875 32.0104 42.4687 34.1979C43.0625 36.3438 43.5833 38.2917 43.9895 39.8437Z" fill="url(#paint2_linear_138_1064)"/>
<path d="M31.75 21.271C30.6354 21.896 30.052 22.271 28.7812 22.9272C27.5625 19.5418 26.4791 16.6043 26.1875 15.9064C25.7708 14.9168 25.1145 15.0106 24.7604 16.0314C22.8125 21.5314 21.3229 25.1252 20.4895 27.4168C17.7395 28.9377 16.0729 30.146 14.0833 31.3647H14.0729C15.4479 28.8647 24.4062 10.5314 25.0104 9.4585L25 9.44808C25.2708 8.98975 25.4166 8.80225 25.5416 8.80225C25.7187 8.80225 25.8333 9.146 26.125 9.57308C26.5937 10.271 30.4895 18.4481 31.75 21.271Z" fill="url(#paint3_linear_138_1064)"/>
<path d="M37.7917 34.4375C36.2396 34.5729 35.0938 34.75 33.0521 34.9688L32.9375 34.9792C28.7396 35.4479 23.5521 36.125 17.6042 37.125L17 37.2188C14.948 37.5729 13.3959 37.9583 11.1771 38.3854C11.5521 37.3854 12.1667 35.9167 12.698 34.5208V34.5104C19.7813 31.5417 27.1042 29.3125 34.6459 27.8438C35.9063 30.5521 37.2709 33.3125 37.7917 34.4375Z" fill="url(#paint4_linear_138_1064)"/>
<path d="M17 37.229C16.7708 37.8123 16.552 38.3957 16.3229 38.9686C16.1458 39.4269 15.9687 39.8853 15.7916 40.3332C15.0937 42.1873 14.4583 43.8957 13.9375 45.2603C13.8333 45.5728 13.7187 45.8644 13.625 46.1353C13.4375 46.6248 13.2812 47.0519 13.1458 47.4061C12 47.6978 10.9895 47.7394 10.2395 47.7186C10.2291 47.729 10.2187 47.729 10.2187 47.7186C10.1458 47.7186 10.0625 47.7082 9.98954 47.7082L9.63538 47.6769H9.60413C9.54163 47.6769 9.47913 47.6769 9.42704 47.6665C9.41663 47.6665 9.39579 47.6665 9.38538 47.6561C8.83329 47.604 8.32288 47.4998 7.85413 47.3748C8.47913 45.2707 10.5833 39.9373 11.125 38.5103L11.177 38.3957C13.3958 37.9582 14.9479 37.5728 17 37.229Z" fill="url(#paint5_linear_138_1064)"/>
<path d="M43.3542 47.2604H43.3438C42.5625 47.4479 41.9896 47.4687 40.8646 47.4896C39.5 47.5312 38.698 47.5417 37.8334 47.3021C37.625 46.7292 37.3855 46.0625 37.1042 45.3437C37.0938 45.3333 37.0938 45.3125 37.0938 45.3021C36.8334 44.5938 36.5313 43.8125 36.2188 43C36.0105 42.4687 35.7917 41.9062 35.5625 41.3229C35.1146 40.1771 34.6355 38.9687 34.1563 37.7396C33.7917 36.8229 33.4271 35.8958 33.0521 34.9687C35.0938 34.7396 36.2292 34.5625 37.7813 34.4375H37.7917C37.8125 34.4896 37.8438 34.5521 37.8542 34.5937C37.8646 34.6146 37.875 34.6458 37.8855 34.6667C37.9167 34.7292 37.9375 34.7812 37.9584 34.8229C38.5209 36.1146 41.1771 41.5208 41.9792 43.4271C42.3334 44.2604 42.6563 45.1771 42.9167 45.9375C42.948 46.0208 42.9792 46.1042 43 46.1875C43.1355 46.5937 43.25 46.9583 43.3334 47.2083C43.3438 47.2292 43.3438 47.25 43.3542 47.2604Z" fill="url(#paint6_linear_138_1064)"/>
<path d="M37.8125 47.3021C37.6979 47.2708 37.5833 47.2292 37.4583 47.1875C37.0104 47.0313 36.6563 46.8438 36.4271 46.7292L36.4167 46.7187L36.3125 46.6458C35.6354 46.1875 35.1979 45.4479 35.1354 44.625C35.0729 43.7708 34.9479 42.9167 34.7708 42.0729C34.2813 39.6771 33.6667 37.3125 32.9375 34.9792L33.0417 34.9688C33.9062 37.125 34.7708 39.3125 35.5625 41.3229C35.7917 41.9062 36.0104 42.4687 36.2187 43C36.8542 44.6667 37.4062 46.1458 37.8125 47.3021Z" fill="url(#paint7_linear_138_1064)"/>
<path d="M17.6042 37.125C17.3334 38.5208 17.125 39.6875 17.0521 39.9896C16.9375 40.4479 16.8438 42.5417 16.7917 44.0521C16.75 45.0521 16.2188 45.9688 15.375 46.4896L14.7188 46.8958C14.4167 47.0208 14.0834 47.1458 13.7396 47.25C13.5417 47.3125 13.3438 47.3646 13.1459 47.4062C13.2813 47.0521 13.4375 46.625 13.625 46.1354C13.7188 45.8646 13.8334 45.5729 13.9375 45.2604C14.4584 43.8958 15.0938 42.1875 15.7917 40.3333C15.9688 39.8854 16.1459 39.4271 16.323 38.9688C16.5521 38.3958 16.7709 37.8125 17 37.2292L17.6042 37.125Z" fill="url(#paint8_linear_138_1064)"/>
</g>
<defs>
<linearGradient id="paint0_linear_138_1064" x1="21.3333" y1="42.0089" x2="-6.11835" y2="13.1651" gradientUnits="userSpaceOnUse">
<stop offset="0.343" stop-color="#858585"/>
<stop offset="0.949" stop-color="white"/>
</linearGradient>
<linearGradient id="paint1_linear_138_1064" x1="40.9422" y1="52.0378" x2="14.0883" y2="-4.31373" gradientUnits="userSpaceOnUse">
<stop offset="0.343" stop-color="#858585"/>
<stop offset="0.949" stop-color="white"/>
</linearGradient>
<linearGradient id="paint2_linear_138_1064" x1="42.165" y1="43.713" x2="13.484" y2="14.3134" gradientUnits="userSpaceOnUse">
<stop offset="0.343" stop-color="#858585"/>
<stop offset="0.949" stop-color="white"/>
</linearGradient>
<linearGradient id="paint3_linear_138_1064" x1="29.7588" y1="33.7423" x2="14.8809" y2="6.65656" gradientUnits="userSpaceOnUse">
<stop offset="0.343" stop-color="#858585"/>
<stop offset="0.949" stop-color="white"/>
</linearGradient>
<linearGradient id="paint4_linear_138_1064" x1="34.7939" y1="39.4962" x2="32.0652" y2="23.4881" gradientUnits="userSpaceOnUse">
<stop offset="0.343" stop-color="#858585"/>
<stop offset="0.949" stop-color="white"/>
</linearGradient>
<linearGradient id="paint5_linear_138_1064" x1="15.9698" y1="48.8326" x2="9.45621" y2="35.6459" gradientUnits="userSpaceOnUse">
<stop offset="0.343" stop-color="#858585"/>
<stop offset="0.949" stop-color="white"/>
</linearGradient>
<linearGradient id="paint6_linear_138_1064" x1="42.1938" y1="48.8906" x2="33.598" y2="33.1531" gradientUnits="userSpaceOnUse">
<stop offset="0.343" stop-color="#858585"/>
<stop offset="0.949" stop-color="white"/>
</linearGradient>
<linearGradient id="paint7_linear_138_1064" x1="37.2634" y1="48.6017" x2="27.6616" y2="39.7827" gradientUnits="userSpaceOnUse">
<stop offset="0.343" stop-color="#858585"/>
<stop offset="0.949" stop-color="white"/>
</linearGradient>
<linearGradient id="paint8_linear_138_1064" x1="17.102" y1="48.4896" x2="9.0691" y2="40.3954" gradientUnits="userSpaceOnUse">
<stop offset="0.343" stop-color="#858585"/>
<stop offset="0.949" stop-color="white"/>
</linearGradient>
<clipPath id="clip0_138_1064">
<rect width="50" height="50" fill="white"/>
</clipPath>
</defs>
</svg>
