<svg width="50" height="41" viewBox="0 0 50 41" fill="none" xmlns="http://www.w3.org/2000/svg">
<path d="M19.6395 22.5573C19.8217 19.3072 21.4132 16.4438 23.8143 14.414C26.169 12.4202 29.3384 11.2017 32.7966 11.2017C36.2512 11.2017 39.4206 12.4202 41.7771 14.414C44.1764 16.4438 45.768 19.3072 45.9519 22.5539C46.1341 25.8934 44.7918 28.9957 42.4371 31.2954C40.036 33.6346 36.6208 35.1024 32.7966 35.1024C28.9723 35.1024 25.5503 33.6346 23.1509 31.2954C20.7945 28.9957 19.4556 25.8934 19.6395 22.5573Z" fill="#9E9E9E"/>
<path d="M26.065 22.8291C26.1585 21.1614 26.9751 19.6922 28.2071 18.6507C29.4154 17.6277 31.0416 17.0024 32.816 17.0024C34.5886 17.0024 36.2148 17.6277 37.4239 18.6507C38.6551 19.6922 39.4717 21.1615 39.5661 22.8273C39.6595 24.5409 38.9708 26.1327 37.7626 27.3126C36.5306 28.5129 34.7782 29.266 32.816 29.266C30.8537 29.266 29.0979 28.5129 27.8667 27.3126C26.6576 26.1327 25.9706 24.5408 26.065 22.8291Z" fill="#2B2B2B"/>
<path d="M15.3146 26.2065C15.3261 26.8591 15.5342 28.1273 15.8464 29.1177C16.5025 31.2139 17.6155 33.1532 19.1641 34.8623C20.7533 36.619 22.7103 38.0301 24.9706 39.0319C27.3464 40.084 29.9207 40.6202 32.5946 40.6158C35.2641 40.6122 37.8384 40.0654 40.2143 39.0054C42.4746 37.9939 44.4298 36.5767 46.0163 34.8191C47.564 33.1029 48.6753 31.1601 49.3332 29.0639C49.6639 28.0047 49.8729 26.9297 49.9567 25.8511C50.0387 24.7884 50.0043 23.724 49.8535 22.6604C49.5589 20.588 48.8419 18.6434 47.7378 16.8708C46.728 15.2419 45.4263 13.8159 43.8786 12.6157L43.8821 12.613L28.2627 0.620174C28.2486 0.609591 28.2371 0.598144 28.2221 0.588443C27.1974 -0.198204 25.4741 -0.195554 24.3471 0.592857C23.2076 1.39009 23.0771 2.7085 24.0913 3.54012L24.0869 3.54454L30.6015 8.84208L10.7455 8.86323H10.719C9.07778 8.865 7.50006 9.94178 7.18786 11.3025C6.86685 12.6889 7.98157 13.8389 9.68805 13.845L9.68542 13.8512L19.7497 13.8318L1.79061 27.6167C1.76768 27.6334 1.74298 27.6511 1.72181 27.6678C0.0276774 28.9651 -0.519972 31.1222 0.547132 32.4874C1.63011 33.8755 3.93276 33.8781 5.64453 32.4953L15.446 24.4736C15.446 24.4736 15.3031 25.5566 15.3146 26.2065ZM40.5009 29.8328C38.4813 31.8903 35.6539 33.0571 32.5946 33.0632C29.5309 33.0685 26.7035 31.9124 24.6839 29.8584C23.6971 28.8575 22.9722 27.7057 22.525 26.479C22.0867 25.2735 21.9165 23.9938 22.0294 22.7028C22.1361 21.4408 22.5118 20.237 23.1115 19.1478C23.7006 18.0772 24.512 17.1098 25.5138 16.2914C27.4769 14.6917 29.9763 13.8256 32.5902 13.8221C35.2068 13.8186 37.7044 14.6767 39.6693 16.2711C40.6693 17.086 41.4798 18.0499 42.0689 19.1188C42.6713 20.207 43.0443 21.4064 43.1554 22.6719C43.2665 23.9612 43.0963 25.2391 42.658 26.4455C42.21 27.6758 41.4877 28.8275 40.5009 29.8328Z" fill="white"/>
</svg>
