<svg width="28" height="30" viewBox="0 0 28 30" fill="none" xmlns="http://www.w3.org/2000/svg">
<path d="M27.127 22.5C27.3362 22.1376 27.4662 21.7294 27.4662 21.3628V8.63716C27.4662 8.27056 27.3364 7.8624 27.1271 7.50006L14.1367 15L27.127 22.5Z" fill="#00599C"/>
<path d="M15.2911 29.725L26.3119 23.3622C26.6294 23.1789 26.9179 22.8624 27.1271 22.5L14.1368 15L1.14648 22.5C1.35566 22.8624 1.64429 23.179 1.96167 23.3622L12.9824 29.725C13.6173 30.0916 14.6563 30.0916 15.2911 29.725Z" fill="#004482"/>
<path d="M27.1272 7.49996C26.918 7.13753 26.6293 6.82103 26.3119 6.63772L15.2912 0.274953C14.6563 -0.0916509 13.6173 -0.0916509 12.9825 0.274953L1.96172 6.63772C1.32679 7.00424 0.807373 7.90402 0.807373 8.63714V21.3628C0.807373 21.7294 0.93727 22.1376 1.14653 22.5L14.1368 15L27.1272 7.49996Z" fill="#659AD2"/>
<path d="M14.1368 23.8863C9.23687 23.8863 5.25049 19.8999 5.25049 15C5.25049 10.1001 9.23687 6.11371 14.1368 6.11371C17.2986 6.11371 20.2473 7.81517 21.8322 10.5541L17.9865 12.7795C17.1932 11.4086 15.718 10.5569 14.1368 10.5569C11.6868 10.5569 9.69364 12.55 9.69364 15C9.69364 17.4499 11.6868 19.4432 14.1368 19.4432C15.7182 19.4432 17.1934 18.5915 17.9867 17.2203L21.8325 19.4456C20.2476 22.1848 17.2988 23.8863 14.1368 23.8863Z" fill="white"/>
<path d="M23.0231 14.5063H22.0357V13.519H21.0485V14.5063H20.061V15.4936H21.0485V16.4811H22.0357V15.4936H23.0231V14.5063ZM26.7258 14.5063H25.7383V13.519H24.7511V14.5063H23.7637V15.4936H24.7511V16.4811H25.7383V15.4936H26.7258V14.5063Z" fill="white"/>
</svg>
