<svg width="28" height="31" viewBox="0 0 28 31" fill="none" xmlns="http://www.w3.org/2000/svg">
<path d="M27.2991 22.875C27.5083 22.5127 27.6383 22.1044 27.6383 21.7378V9.01219C27.6383 8.64559 27.5085 8.23743 27.2992 7.87509L14.3088 15.375L27.2991 22.875Z" fill="#00599C"/>
<path d="M15.4632 30.1L26.4839 23.7372C26.8014 23.5539 27.0899 23.2374 27.2991 22.875L14.3088 15.375L1.31852 22.8751C1.5277 23.2374 1.81633 23.554 2.13371 23.7372L13.1545 30.1C13.7893 30.4666 14.8283 30.4666 15.4632 30.1Z" fill="#004482"/>
<path d="M27.2992 7.875C27.0899 7.51258 26.8013 7.19607 26.4839 7.01277L15.4632 0.649999C14.8283 0.283395 13.7893 0.283395 13.1545 0.649999L2.13371 7.01277C1.49878 7.37929 0.979362 8.27907 0.979362 9.01219V21.7378C0.979362 22.1044 1.10926 22.5127 1.31852 22.875L14.3088 15.375L27.2992 7.875Z" fill="#659AD2"/>
<path d="M14.3088 24.2614C9.4089 24.2614 5.42252 20.275 5.42252 15.375C5.42252 10.4751 9.4089 6.48874 14.3088 6.48874C17.4706 6.48874 20.4194 8.19021 22.0043 10.9291L18.1585 13.1545C17.3653 11.7836 15.8901 10.9319 14.3088 10.9319C11.8588 10.9319 9.86567 12.925 9.86567 15.375C9.86567 17.825 11.8588 19.8182 14.3088 19.8182C15.8902 19.8182 17.3654 18.9665 18.1588 17.5953L22.0045 19.8206C20.4196 22.5598 17.4708 24.2614 14.3088 24.2614Z" fill="white"/>
<path d="M23.1951 14.8813H22.2077V13.894H21.2205V14.8813H20.233V15.8687H21.2205V16.8561H22.2077V15.8687H23.1951V14.8813ZM26.8978 14.8813H25.9103V13.894H24.9231V14.8813H23.9357V15.8687H24.9231V16.8561H25.9103V15.8687H26.8978V14.8813Z" fill="white"/>
</svg>
