<svg width="28" height="30" viewBox="0 0 28 30" fill="none" xmlns="http://www.w3.org/2000/svg">
<path d="M26.7977 22.4999C27.0069 22.1376 27.1369 21.7293 27.1369 21.3627V8.6371C27.1369 8.2705 27.0071 7.86233 26.7978 7.5L13.8074 15L26.7977 22.4999Z" fill="#00599C"/>
<path d="M14.9618 29.725L25.9825 23.3622C26.3 23.1789 26.5885 22.8624 26.7977 22.5L13.8074 15L0.817123 22.5C1.0263 22.8624 1.31493 23.179 1.63231 23.3622L12.6531 29.725C13.2879 30.0916 14.3269 30.0916 14.9618 29.725Z" fill="#004482"/>
<path d="M26.7978 7.49996C26.5886 7.13753 26.2999 6.82103 25.9825 6.63772L14.9618 0.274953C14.3269 -0.0916509 13.2879 -0.0916509 12.6531 0.274953L1.63232 6.63772C0.99738 7.00424 0.477966 7.90402 0.477966 8.63714V21.3628C0.477966 21.7294 0.607863 22.1376 0.817127 22.5L13.8074 15L26.7978 7.49996Z" fill="#659AD2"/>
<path d="M13.8074 23.8863C8.9075 23.8863 4.92112 19.8999 4.92112 15C4.92112 10.1 8.9075 6.11365 13.8074 6.11365C16.9692 6.11365 19.918 7.81511 21.5029 10.554L17.6571 12.7794C16.8639 11.4085 15.3887 10.5568 13.8074 10.5568C11.3574 10.5568 9.36427 12.5499 9.36427 15C9.36427 17.4499 11.3574 19.4431 13.8074 19.4431C15.3888 19.4431 16.8641 18.5914 17.6574 17.2202L21.5031 19.4455C19.9182 22.1847 16.9694 23.8863 13.8074 23.8863Z" fill="white"/>
<path d="M22.6937 14.5063H21.7063V13.5189H20.7191V14.5063H19.7316V15.4936H20.7191V16.481H21.7063V15.4936H22.6937V14.5063ZM26.3964 14.5063H25.4089V13.5189H24.4217V14.5063H23.4343V15.4936H24.4217V16.481H25.4089V15.4936H26.3964V14.5063Z" fill="white"/>
</svg>
