<svg width="51" height="57" viewBox="0 0 51 57" fill="none" xmlns="http://www.w3.org/2000/svg">
<g clip-path="url(#clip0_142_459)">
<path d="M50.2778 16.6531C50.2774 15.7166 50.0771 14.8889 49.672 14.1788C49.2741 13.4802 48.6782 12.8947 47.8789 12.4319C41.281 8.62749 34.6767 4.83475 28.081 1.0265C26.3028 -7.27834e-05 24.5787 0.0375464 22.8138 1.07886C20.1876 2.62744 7.03934 10.1604 3.12134 12.4297C1.50779 13.364 0.722635 14.7935 0.722247 16.6514C0.719727 24.3022 0.722247 31.9531 0.719727 39.6039C0.719727 40.5199 0.911894 41.3316 1.29914 42.0311C1.69724 42.7507 2.30147 43.3522 3.1192 43.8256C7.0374 46.0949 20.1874 53.6273 22.813 55.1764C24.5787 56.2183 26.3028 56.2555 28.0816 55.2288C34.6775 51.4203 41.2822 47.6276 47.881 43.8232C48.6988 43.3501 49.303 42.7482 49.7011 42.0291C50.0878 41.3295 50.2803 40.518 50.2803 39.6017C50.2803 39.6017 50.2803 24.3042 50.2778 16.6531Z" fill="white"/>
<path d="M25.5758 28.0531L1.29907 42.0311C1.69718 42.7507 2.30141 43.3522 3.11914 43.8256C7.03734 46.0949 20.1873 53.6273 22.8129 55.1764C24.5787 56.2183 26.3028 56.2556 28.0815 55.2288C34.6775 51.4204 41.2821 47.6276 47.881 43.8232C48.6987 43.3501 49.3029 42.7482 49.701 42.0292L25.5758 28.0531Z" fill="white"/>
<path d="M50.2778 16.6533C50.2774 15.7167 50.0771 14.8891 49.672 14.179L25.5758 28.0534L49.7011 42.0293C50.0877 41.3296 50.2799 40.5181 50.2803 39.6019C50.2803 39.6019 50.2803 24.3043 50.2778 16.6533Z" fill="white"/>
<path d="M39.8692 22.8278V25.4405H42.4819V22.8278H43.7883V25.4405H46.4011V26.7469H43.7883V29.3595H46.4011V30.6659H43.7883V33.2787H42.4819V30.6659H39.8692V33.2787H38.5628V30.6659H35.9502V29.3595H38.5628V26.7469H35.9502V25.4405H38.5628V22.8278H39.8692ZM42.4819 26.7467H39.8692V29.3595H42.4819V26.7467Z" fill="#2B2B2B"/>
<path d="M25.6292 9.70613C32.444 9.70613 38.3939 13.4071 41.5808 18.9084L41.5498 18.8555L33.5315 23.4722C31.9519 20.7975 29.056 18.9924 25.7337 18.9552L25.629 18.9546C20.563 18.9546 16.4559 23.0617 16.4559 28.1276C16.4543 29.7244 16.8714 31.2936 17.6658 32.6788C19.2469 35.4391 22.2194 37.3009 25.6292 37.3009C29.0601 37.3009 32.0494 35.4155 33.6225 32.6256L33.5843 32.6925L41.5903 37.3305C38.4383 42.7853 32.5699 46.4749 25.8343 46.5484L25.6292 46.5495C18.7928 46.5495 12.8261 42.8256 9.64708 37.2952C8.0952 34.5954 7.20728 31.4655 7.20728 28.1276C7.20728 17.9538 15.4548 9.70593 25.629 9.70593L25.6292 9.70613Z" fill="#2B2B2B"/>
</g>
<defs>
<clipPath id="clip0_142_459">
<rect width="50" height="56.2556" fill="white" transform="translate(0.5)"/>
</clipPath>
</defs>
</svg>
