<svg width="26" height="26" viewBox="0 0 26 26" fill="none" xmlns="http://www.w3.org/2000/svg">
<path d="M23.82 13.1179L25.4224 10.4035C25.4868 10.2681 25.4956 10.1128 25.4468 9.97294L22.273 0.882162C22.1754 0.604733 21.8846 0.447154 21.6028 0.515956L12.2745 2.78865C12.0969 2.83304 11.9505 2.95955 11.8817 3.13044L10.8896 5.61398H7.8645C7.70692 5.61398 7.55378 5.68057 7.44724 5.79598L0.629159 13.1822C0.418313 13.4108 0.429411 13.7659 0.653573 13.979L7.80457 20.7971C7.90889 20.8992 8.05093 20.9547 8.19519 20.9547H11.4555L12.4498 23.4382C12.5231 23.6224 12.6873 23.7534 12.8804 23.7867L22.8013 25.4912C22.8323 25.4978 22.8656 25.5001 22.8967 25.5001C23.1608 25.5001 23.3938 25.3181 23.4515 25.054L25.4646 15.8322C25.4956 15.6902 25.4712 15.5415 25.3935 15.415L23.82 13.1179ZM10.8896 5.61398L18.8973 4.14694L14.6826 12.4321H5.11906L10.8896 5.61398ZM11.4578 20.9547L5.11906 14.7048H14.6826L19.6541 22.1865L11.4578 20.9547ZM21.7204 20.897L16.9553 13.5684L21.1211 5.28329L23.82 13.1201L21.7204 20.897Z" fill="white"/>
</svg>
