<svg width="50" height="77" viewBox="0 0 50 77" fill="none" xmlns="http://www.w3.org/2000/svg">
<path d="M0 5.02467V37.6399L1.92763 74.2167C7.79276 75.3921 14.5425 76.032 22.0644 76.2226V59.8929C21.8478 52.04 25.5747 48.4755 32.3344 47.3222L47.9621 45.2842L43.5452 34.4125C35.9169 33.219 29.2895 31.7828 25.9077 30.0879C21.6071 27.8333 20.2251 22.7324 23.9018 18.8892C25.1254 17.6094 28.425 16.0669 32.1639 16.0469H50L46.7726 4.17619C39.8062 1.98379 27.6026 1.05709 14.8373 0C10.282 0.850483 5.41581 2.5675 0 5.02467Z" fill="#878787"/>
<path d="M32.3344 47.3225L47.962 45.2845L43.5451 34.4128C35.9169 33.2193 29.2895 31.7831 25.9076 30.0882C21.6071 27.8336 20.2251 22.7327 23.9018 18.8895C25.1254 17.6097 28.425 16.0672 32.1639 16.0472H48.6942C41.3568 14.4806 35.3131 13.1326 29.2514 13.0384C17.8381 12.8619 10.5428 18.6147 9.69431 28.0823C9.15473 34.0918 9.67224 40.5848 12.0351 48.1409C14.3238 55.4683 17.459 65.3732 22.0644 75.6312V59.8932C21.8478 52.0403 25.5747 48.4758 32.3344 47.3225Z" fill="white"/>
<path d="M22.0645 39.1138C22.0645 41.8839 24.309 44.1284 27.0791 44.1284H47.4927L43.5452 34.412C42.8953 34.3097 42.2634 34.2034 41.6296 34.0991H27.0791C24.309 34.0991 22.0645 36.3437 22.0645 39.1138Z" fill="#878787"/>
<path d="M13.8746 0.668213C13.8746 0.668213 13.1124 1.69321 12.0593 3.6429C11.5398 4.61975 10.938 5.82126 10.3543 7.24341C9.76057 8.66155 9.17686 10.2923 8.61121 12.0916C8.03753 13.8868 7.56415 15.8766 7.1349 17.9888C6.9644 19.0539 6.7919 20.1471 6.61338 21.2644C6.50907 22.3916 6.33255 23.535 6.23627 24.7044C6.03368 27.0432 5.98554 29.4824 5.98955 31.9355C6.03168 34.4027 6.25032 36.88 6.6214 39.3612C7.31342 44.3217 8.5751 49.1999 10.1617 53.6188C11.7564 58.0337 13.7683 61.9712 15.6137 65.2929C17.4751 68.6026 19.0537 71.3586 20.2311 73.2441C21.3986 75.1397 22.0645 76.2228 22.0645 76.2228C22.0645 76.2228 21.2461 75.246 19.9102 73.4628C18.5964 71.6655 16.6808 69.1121 14.6468 65.8666C12.643 62.6191 10.2841 58.7618 8.51292 54.2487C6.71567 49.7616 5.3878 44.7489 4.63761 39.646C4.28056 37.0986 4.07597 34.499 4.05591 31.9656C4.06794 29.4142 4.22641 26.9329 4.48717 24.5279C4.75395 22.1269 5.20928 19.8322 5.71676 17.6799C6.27238 15.5376 6.86411 13.5318 7.55011 11.7285C8.20402 9.91521 8.95421 8.31053 9.68434 6.92849C10.4024 5.54044 11.1165 4.37905 11.7263 3.44231C12.976 1.58288 13.8746 0.668213 13.8746 0.668213Z" fill="white"/>
</svg>
