<svg width="21" height="31" viewBox="0 0 21 31" fill="none" xmlns="http://www.w3.org/2000/svg">
<path d="M0.923492 2.35263V15.1895L1.68218 29.5855C3.9906 30.0482 6.64718 30.3 9.6077 30.375V23.9479C9.52244 20.8571 10.9893 19.4542 13.6498 19.0003L19.8006 18.1982L18.0622 13.9192C15.0598 13.4495 12.4514 12.8842 11.1203 12.2171C9.4277 11.3297 8.88376 9.3221 10.3309 7.80947C10.8124 7.30579 12.1111 6.69868 13.5827 6.69079H20.6027L19.3324 2.01868C16.5906 1.15579 11.7874 0.791053 6.76323 0.375C4.97033 0.709737 3.05507 1.38553 0.923492 2.35263Z" fill="#FB8C00"/>
<path d="M13.6498 19.0003L19.8006 18.1982L18.0622 13.9192C15.0598 13.4495 12.4514 12.8842 11.1203 12.2171C9.4277 11.3297 8.88375 9.3221 10.3309 7.80947C10.8124 7.30578 12.1111 6.69868 13.5827 6.69078H20.0888C17.2009 6.07421 14.8222 5.54368 12.4364 5.50657C7.94428 5.4371 5.07297 7.70131 4.73902 11.4276C4.52665 13.7929 4.73033 16.3484 5.66033 19.3224C6.56112 22.2063 7.79507 26.1047 9.6077 30.1421V23.9479C9.52244 20.8571 10.9893 19.4542 13.6498 19.0003Z" fill="#FFCC80"/>
<path d="M9.6077 15.7697C9.6077 16.86 10.4911 17.7434 11.5814 17.7434H19.6159L18.0622 13.9192C17.8064 13.8789 17.5577 13.8371 17.3082 13.7961H11.5814C10.4911 13.7961 9.6077 14.6795 9.6077 15.7697Z" fill="#FB8C00"/>
<path d="M6.38428 0.637894C6.38428 0.637894 6.08428 1.04131 5.6698 1.80868C5.46533 2.19316 5.22849 2.66605 4.99875 3.22579C4.76507 3.78395 4.53533 4.42579 4.3127 5.13395C4.08691 5.84052 3.90059 6.62368 3.73165 7.455C3.66454 7.87421 3.59665 8.30447 3.52639 8.74421C3.48533 9.18789 3.41586 9.63789 3.37796 10.0982C3.29823 11.0187 3.27928 11.9787 3.28086 12.9442C3.29744 13.9153 3.38349 14.8903 3.52954 15.8668C3.80191 17.8192 4.29849 19.7392 4.92296 21.4784C5.5506 23.216 6.34244 24.7658 7.06875 26.0732C7.80138 27.3758 8.4227 28.4605 8.88612 29.2026C9.3456 29.9487 9.6077 30.375 9.6077 30.375C9.6077 30.375 9.2856 29.9905 8.75981 29.2887C8.2427 28.5813 7.48875 27.5763 6.68823 26.2989C5.89954 25.0208 4.97112 23.5026 4.27402 21.7263C3.56665 19.9603 3.04402 17.9874 2.74875 15.9789C2.60823 14.9763 2.5277 13.9532 2.51981 12.9561C2.52454 11.9518 2.58691 10.9753 2.68954 10.0287C2.79454 9.08368 2.97375 8.18052 3.17349 7.33342C3.39217 6.49026 3.62507 5.70079 3.89507 4.99105C4.15244 4.27737 4.4477 3.64579 4.73507 3.10184C5.0177 2.55553 5.29875 2.09842 5.53875 1.72974C6.0306 0.997894 6.38428 0.637894 6.38428 0.637894Z" fill="#FFCC80"/>
</svg>
