<svg width="31" height="30" viewBox="0 0 31 30" fill="none" xmlns="http://www.w3.org/2000/svg">
<path d="M21.3843 0H10.1343C7.64793 0 5.26336 0.98772 3.5052 2.74587C1.74705 4.50403 0.759331 6.8886 0.759331 9.375L0.759331 20.625C0.759331 23.1114 1.74705 25.496 3.5052 27.2541C5.26336 29.0123 7.64793 30 10.1343 30H21.3843C23.8707 30 26.2553 29.0123 28.0135 27.2541C29.7716 25.496 30.7593 23.1114 30.7593 20.625V9.375C30.7593 6.8886 29.7716 4.50403 28.0135 2.74587C26.2553 0.98772 23.8707 0 21.3843 0V0ZM27.9468 20.625C27.9468 24.2437 25.0031 27.1875 21.3843 27.1875H10.1343C6.51558 27.1875 3.57183 24.2437 3.57183 20.625V9.375C3.57183 5.75625 6.51558 2.8125 10.1343 2.8125H21.3843C25.0031 2.8125 27.9468 5.75625 27.9468 9.375V20.625Z" fill="url(#paint0_linear_1_50)"/>
<path d="M15.7593 7.5C13.7702 7.5 11.8626 8.29018 10.456 9.6967C9.04951 11.1032 8.25933 13.0109 8.25933 15C8.25933 16.9891 9.04951 18.8968 10.456 20.3033C11.8626 21.7098 13.7702 22.5 15.7593 22.5C17.7485 22.5 19.6561 21.7098 21.0626 20.3033C22.4692 18.8968 23.2593 16.9891 23.2593 15C23.2593 13.0109 22.4692 11.1032 21.0626 9.6967C19.6561 8.29018 17.7485 7.5 15.7593 7.5ZM15.7593 19.6875C14.5166 19.686 13.3252 19.1917 12.4464 18.3129C11.5677 17.4342 11.0733 16.2427 11.0718 15C11.0718 12.4144 13.1756 10.3125 15.7593 10.3125C18.3431 10.3125 20.4468 12.4144 20.4468 15C20.4468 17.5838 18.3431 19.6875 15.7593 19.6875Z" fill="url(#paint1_linear_1_50)"/>
<path d="M23.8216 7.93503C24.3736 7.93503 24.821 7.48759 24.821 6.93565C24.821 6.38371 24.3736 5.93628 23.8216 5.93628C23.2697 5.93628 22.8223 6.38371 22.8223 6.93565C22.8223 7.48759 23.2697 7.93503 23.8216 7.93503Z" fill="url(#paint2_linear_1_50)"/>
<defs>
<linearGradient id="paint0_linear_1_50" x1="3.50433" y1="27.255" x2="28.0143" y2="2.745" gradientUnits="userSpaceOnUse">
<stop stop-color="#FFC107"/>
<stop offset="0.507" stop-color="#F44336"/>
<stop offset="0.99" stop-color="#9C27B0"/>
</linearGradient>
<linearGradient id="paint1_linear_1_50" x1="10.4568" y1="20.3025" x2="21.0618" y2="9.6975" gradientUnits="userSpaceOnUse">
<stop stop-color="#FFC107"/>
<stop offset="0.507" stop-color="#F44336"/>
<stop offset="0.99" stop-color="#9C27B0"/>
</linearGradient>
<linearGradient id="paint2_linear_1_50" x1="23.1148" y1="7.64253" x2="24.5285" y2="6.22878" gradientUnits="userSpaceOnUse">
<stop stop-color="#FFC107"/>
<stop offset="0.507" stop-color="#F44336"/>
<stop offset="0.99" stop-color="#9C27B0"/>
</linearGradient>
</defs>
</svg>
