<svg width="50" height="67" viewBox="0 0 50 67" fill="none" xmlns="http://www.w3.org/2000/svg">
<path d="M25 0C11.1937 0 0 11.1937 0 25C0 30.4365 1.78229 35.425 4.74479 39.5104C4.79792 39.6083 4.80625 39.7177 4.86667 39.8115L21.5333 64.8115C22.3063 65.9708 23.6083 66.6667 25 66.6667C26.3917 66.6667 27.6937 65.9708 28.4667 64.8115L45.1333 39.8115C45.1948 39.7177 45.2021 39.6083 45.2552 39.5104C48.2177 35.425 50 30.4365 50 25C50 11.1937 38.8062 0 25 0ZM25 33.3333C20.3979 33.3333 16.6667 29.6021 16.6667 25C16.6667 20.3979 20.3979 16.6667 25 16.6667C29.6021 16.6667 33.3333 20.3979 33.3333 25C33.3333 29.6021 29.6021 33.3333 25 33.3333Z" fill="white"/>
</svg>
