<svg width="33" height="31" viewBox="0 0 33 31" fill="none" xmlns="http://www.w3.org/2000/svg">
<path d="M14.3521 17.5179L9.35206 13.2321C9.35206 13.2321 10.0663 12.1607 11.1378 11.0893C12.2092 10.0179 13.0921 9.76643 14.3521 8.94643C16.8599 7.315 18.9949 0.375 22.2092 0.375L14.3521 17.5179Z" fill="url(#paint0_linear_1_45)"/>
<path d="M7.2092 21.8507L0.0663452 16.8036L9.35206 13.2321L14.5499 17.1357L9.35206 21.1364L7.2092 21.8507Z" fill="url(#paint1_linear_1_45)"/>
<path d="M22.2092 0.375C25.7806 0.375 31.4949 19.6607 32.9235 24.6607C32.9235 24.6607 27.9113 19.925 25.0663 20.375C22.2213 20.825 21.1592 25.0521 18.1199 28.0579C16.1378 30.0179 14.3521 30.375 14.3521 30.375C14.3521 30.375 14.2049 24.5721 10.7806 22.5179C8.99492 21.4464 7.2092 21.8036 7.2092 21.8036C7.2092 21.8036 11.5299 19.7314 13.9763 15.965C16.4228 12.1986 19.7092 0.375 22.2092 0.375Z" fill="url(#paint2_linear_1_45)"/>
<defs>
<linearGradient id="paint0_linear_1_45" x1="15.5271" y1="6.00429" x2="18.4642" y2="15.2707" gradientUnits="userSpaceOnUse">
<stop stop-color="#4ADDDF"/>
<stop offset="0.699" stop-color="#3F5352"/>
<stop offset="0.863" stop-color="#442729"/>
</linearGradient>
<linearGradient id="paint1_linear_1_45" x1="0.0663452" y1="17.5414" x2="26.3342" y2="17.5414" gradientUnits="userSpaceOnUse">
<stop stop-color="#4ADDDF"/>
<stop offset="0.792" stop-color="#3F5352"/>
<stop offset="1" stop-color="#442729"/>
</linearGradient>
<linearGradient id="paint2_linear_1_45" x1="7.2092" y1="15.375" x2="32.9235" y2="15.375" gradientUnits="userSpaceOnUse">
<stop offset="0.206" stop-color="#53140F"/>
<stop offset="0.3" stop-color="#84360F"/>
<stop offset="0.413" stop-color="#B85B10"/>
<stop offset="0.511" stop-color="#DF7610"/>
<stop offset="0.59" stop-color="#F68710"/>
<stop offset="0.639" stop-color="#FF8D10"/>
<stop offset="0.729" stop-color="#FD8A10"/>
<stop offset="0.8" stop-color="#F58010"/>
<stop offset="0.865" stop-color="#E86F10"/>
<stop offset="0.925" stop-color="#D65811"/>
<stop offset="0.982" stop-color="#C03A11"/>
<stop offset="1" stop-color="#B72F11"/>
</linearGradient>
</defs>
</svg>
