<svg width="51" height="50" viewBox="0 0 51 50" fill="none" xmlns="http://www.w3.org/2000/svg">
<g clip-path="url(#clip0_142_506)">
<path fill-rule="evenodd" clip-rule="evenodd" d="M32.36 46.145C31.155 46.145 30.18 45.1652 30.18 43.9539C30.18 42.7426 31.155 41.7651 32.36 41.7651C33.565 41.7651 34.54 42.7426 34.54 43.9539C34.54 45.1652 33.565 46.145 32.36 46.145ZM25.68 50C38.375 50 37.5825 44.4666 37.5825 44.4666L37.5675 38.7341H25.455V37.0129H42.3775C42.3775 37.0129 50.5 37.9403 50.5 25.0659C50.5 12.1915 43.4125 12.6453 43.4125 12.6453H39.18V18.6218C39.18 18.6218 39.4075 25.7458 32.205 25.7458H20.19C20.19 25.7458 13.44 25.6387 13.44 32.3059V43.3276C13.44 43.3276 12.415 50 25.68 50ZM18.6425 3.85498C19.8475 3.85498 20.82 4.83484 20.82 6.04614C20.82 7.25744 19.8475 8.23486 18.6425 8.23486C17.4375 8.23486 16.4625 7.25744 16.4625 6.04614C16.4625 4.83484 17.4375 3.85498 18.6425 3.85498ZM25.32 0C12.6275 0 13.42 5.53345 13.42 5.53345L13.435 11.2659H25.5475V12.9871H8.62248C8.62248 12.9871 0.5 12.0597 0.5 24.9341C0.5 37.8085 7.59 37.3547 7.59 37.3547H11.82V31.3782C11.82 31.3782 11.5925 24.2542 18.7975 24.2542H30.81C30.81 24.2542 37.56 24.3613 37.56 17.6941V6.67236C37.56 6.67236 38.585 0 25.32 0Z" fill="white"/>
</g>
<defs>
<clipPath id="clip0_142_506">
<rect width="50" height="50" fill="white" transform="translate(0.5)"/>
</clipPath>
</defs>
</svg>
