<svg width="30" height="28" viewBox="0 0 30 28" fill="none" xmlns="http://www.w3.org/2000/svg">
<path d="M15 20.5051C6.58696 20.5051 0 17.6355 0 13.9833C0 10.3311 6.58696 7.46158 15 7.46158C23.413 7.46158 30 10.3311 30 13.9833C30 17.6355 23.413 20.5051 15 20.5051ZM15 8.76593C6.78261 8.76593 1.30435 11.4398 1.30435 13.9833C1.30435 16.5268 6.78261 19.2007 15 19.2007C23.2174 19.2007 28.6957 16.5268 28.6957 13.9833C28.6957 11.4398 23.2174 8.76593 15 8.76593Z" fill="#80DEEA"/>
<path d="M9.1957 27.4181C8.54353 27.4181 8.02179 27.2877 7.50005 26.9616C4.3044 25.1355 5.15223 18.0268 9.32614 10.7224C11.2827 7.33114 13.6957 4.46157 16.0435 2.63548C18.587 0.678962 20.8696 0.0920054 22.4348 1.00505C24.0653 1.91809 24.6522 4.2007 24.2609 7.39635C23.8696 10.3964 22.5653 13.9181 20.6087 17.3094C18.6522 20.7007 16.2392 23.5703 13.8914 25.3964C12.1957 26.7007 10.5653 27.4181 9.1957 27.4181ZM20.8044 1.85288C19.7609 1.85288 18.3914 2.43983 16.8914 3.61374C14.674 5.37461 12.3914 8.11374 10.5001 11.3746C6.39136 18.4833 6.00005 24.6137 8.15223 25.8529C9.26092 26.5051 11.087 25.9181 13.1087 24.3529C15.3261 22.592 17.6087 19.8529 19.5001 16.592C21.3914 13.3311 22.6305 10.005 23.0218 7.2007C23.3479 4.59201 22.9566 2.76592 21.8479 2.11374C21.5218 1.98331 21.1957 1.85288 20.8044 1.85288Z" fill="#80DEEA"/>
<path d="M20.8695 27.4181C17.6087 27.4181 12.913 23.4398 9.39128 17.2442C5.15215 9.93983 4.30432 2.83113 7.49997 1.00504C10.6956 -0.821044 16.4348 3.41809 20.6739 10.7224C22.6304 14.1137 23.9348 17.6355 24.3261 20.6355C24.7826 23.8311 24.1304 26.0485 22.5 27.0268C21.9782 27.2877 21.4565 27.4181 20.8695 27.4181ZM8.15215 2.11374C5.99997 3.35287 6.39128 9.4833 10.5 16.592C14.6087 23.7007 19.6956 27.092 21.8478 25.8529C22.9565 25.2007 23.3478 23.3746 23.0217 20.7659C22.6304 17.9616 21.3913 14.6355 19.5 11.3746C15.3913 4.26591 10.3043 0.874608 8.15215 2.11374Z" fill="#80DEEA"/>
<path d="M15.0001 16.592C16.4408 16.592 17.6087 15.424 17.6087 13.9833C17.6087 12.5426 16.4408 11.3746 15.0001 11.3746C13.5593 11.3746 12.3914 12.5426 12.3914 13.9833C12.3914 15.424 13.5593 16.592 15.0001 16.592Z" fill="#80DEEA"/>
</svg>
