<svg width="30" height="28" viewBox="0 0 30 28" fill="none" xmlns="http://www.w3.org/2000/svg">
<path d="M15 20.2815C6.58696 20.2815 0 17.4119 0 13.7597C0 10.1076 6.58696 7.238 15 7.238C23.413 7.238 30 10.1076 30 13.7597C30 17.4119 23.413 20.2815 15 20.2815ZM15 8.54234C6.78261 8.54234 1.30435 11.2163 1.30435 13.7597C1.30435 16.3032 6.78261 18.9771 15 18.9771C23.2174 18.9771 28.6957 16.3032 28.6957 13.7597C28.6957 11.2163 23.2174 8.54234 15 8.54234Z" fill="#80DEEA"/>
<path d="M9.19558 27.1945C8.54341 27.1945 8.02167 27.0641 7.49993 26.738C4.30428 24.9119 5.1521 17.8032 9.32602 10.4989C11.2825 7.10755 13.6956 4.23799 16.0434 2.4119C18.5869 0.455377 20.8695 -0.13158 22.4347 0.781464C24.0651 1.69451 24.6521 3.97712 24.2608 7.17277C23.8695 10.1728 22.5651 13.6945 20.6086 17.0858C18.6521 20.4771 16.2391 23.3467 13.8912 25.1728C12.1956 26.4771 10.5651 27.1945 9.19558 27.1945ZM20.8043 1.62929C19.7608 1.62929 18.3912 2.21625 16.8912 3.39016C14.6738 5.15103 12.3912 7.89016 10.4999 11.151C6.39123 18.2597 5.99993 24.3902 8.1521 25.6293C9.2608 26.2815 11.0869 25.6945 13.1086 24.1293C15.326 22.3684 17.6086 19.6293 19.4999 16.3684C21.3912 13.1076 22.6304 9.78146 23.0217 6.97712C23.3478 4.36842 22.9565 2.54233 21.8478 1.89016C21.5217 1.75972 21.1956 1.62929 20.8043 1.62929Z" fill="#80DEEA"/>
<path d="M20.8695 27.1945C17.6087 27.1945 12.913 23.2163 9.39128 17.0206C5.15215 9.71625 4.30432 2.60755 7.49997 0.781467C10.6956 -1.04462 16.4348 3.19451 20.6739 10.4989C22.6304 13.8902 23.9348 17.4119 24.3261 20.4119C24.7826 23.6076 24.1304 25.8249 22.5 26.8032C21.9782 27.0641 21.4565 27.1945 20.8695 27.1945ZM8.15215 1.89016C5.99997 3.12929 6.39128 9.25973 10.5 16.3684C14.6087 23.4771 19.6956 26.8684 21.8478 25.6293C22.9565 24.9771 23.3478 23.151 23.0217 20.5423C22.6304 17.738 21.3913 14.4119 19.5 11.151C15.3913 4.04234 10.3043 0.651033 8.15215 1.89016Z" fill="#80DEEA"/>
<path d="M15.0001 16.3684C16.4408 16.3684 17.6087 15.2005 17.6087 13.7597C17.6087 12.319 16.4408 11.151 15.0001 11.151C13.5593 11.151 12.3914 12.319 12.3914 13.7597C12.3914 15.2005 13.5593 16.3684 15.0001 16.3684Z" fill="#80DEEA"/>
</svg>
