<svg width="28" height="31" viewBox="0 0 28 31" fill="none" xmlns="http://www.w3.org/2000/svg">
<path d="M15.9881 4.99013V9.60573L23.982 14.2213V9.60573L15.9881 4.99013ZM0 9.60573V14.2213L3.99691 16.5287V11.9135L0 9.60573ZM11.9907 11.9135L7.99383 14.2213V28.0672L11.9907 30.375V21.1443L15.9881 23.4521V18.8365L11.9907 16.5287V11.9135Z" fill="#E55B2D"/>
<path d="M15.9881 4.99013L3.9969 11.9135V16.5287L11.9907 11.9135V16.5287L15.9881 14.2213V4.99013ZM27.9794 7.29793L23.982 9.60573V14.2213L27.9794 11.9135V7.29793ZM19.985 16.5287L15.9881 18.8365V23.4521L19.985 21.1443V16.5287ZM15.9881 23.4521L11.9907 21.1443V30.375L15.9881 28.0672V23.4521Z" fill="#ED8E24"/>
<path d="M15.9881 0.375L0 9.60573L3.99691 11.9135L15.9881 4.99013L23.982 9.60573L27.9794 7.29793L15.9881 0.375ZM15.9881 14.2213L11.9907 16.5287L15.9881 18.8365L19.9851 16.5287L15.9881 14.2213Z" fill="#F8BF3C"/>
</svg>
