<svg width="31" height="31" viewBox="0 0 31 31" fill="none" xmlns="http://www.w3.org/2000/svg">
<path d="M0.967988 0.375027C0.917637 0.375823 0.868113 0.387961 0.8231 0.410536C0.778086 0.433112 0.738742 0.465545 0.707992 0.505424C0.677242 0.545303 0.655878 0.591601 0.645489 0.640875C0.6351 0.690149 0.635954 0.741131 0.647986 0.79003L4.26551 15.4351C4.26838 15.4521 4.27256 15.4688 4.27801 15.4851L7.89053 30.1202C7.90465 30.1775 7.93364 30.23 7.97455 30.2724C8.01547 30.3149 8.06687 30.3458 8.12356 30.3621C8.18026 30.3783 8.24023 30.3793 8.29742 30.3649C8.35461 30.3505 8.407 30.3213 8.44928 30.2802L30.2457 9.31258C30.2878 9.27175 30.3186 9.22054 30.3347 9.1641C30.3509 9.10766 30.3519 9.04797 30.3377 8.991C30.3236 8.93403 30.2946 8.88179 30.2539 8.8395C30.2132 8.79722 30.1621 8.76638 30.1057 8.75008L22.8756 6.66632C22.8287 6.63954 22.7759 6.62453 22.7219 6.62257L8.46804 2.51879C8.41399 2.48539 8.35156 2.46805 8.28803 2.46879L1.06299 0.387527C1.03208 0.37883 1.00009 0.37462 0.967988 0.375027ZM1.43549 1.19253L7.63053 2.97504L2.9805 7.45507L1.43549 1.19253ZM8.75554 3.30005L14.8356 5.05006L10.273 9.44383L8.75554 3.30005ZM8.10303 3.45005L9.62429 9.60759L3.528 7.85757L8.10303 3.45005ZM15.9531 5.37256L22.0506 7.12757L17.4731 11.5401L15.9531 5.37256ZM15.3031 5.53506L16.8131 11.6601L10.7468 9.92009L15.3031 5.53506ZM23.1781 7.45257L29.3619 9.23258L24.7181 13.7001L23.1781 7.45257ZM22.5231 7.60257L24.0419 13.7601L17.9468 12.0126L22.5231 7.60257ZM3.233 8.47258L9.43804 10.2526L4.78051 14.7351L3.233 8.47258ZM10.5518 10.5626L16.6481 12.3126L12.0731 16.7214L10.5518 10.5626ZM9.90429 10.7338L11.4493 17.0051L5.24551 15.2151L9.90429 10.7338ZM17.7468 12.6526L23.9531 14.4339L19.2906 18.9164L17.7468 12.6526ZM17.0968 12.8114L18.6406 19.0764L12.4431 17.2889L17.0968 12.8114ZM5.05926 15.8589L11.1506 17.6164L6.58052 22.0202L5.05926 15.8589ZM12.3768 17.9676L18.4556 19.7214L13.8956 24.1089L12.3768 17.9676ZM11.7018 18.0176L13.2193 24.1764L7.12553 22.4264L11.7018 18.0176ZM6.83177 23.0427L13.1281 24.8452L8.40053 29.3927L6.83177 23.0427Z" fill="black"/>
</svg>
