<svg width="50" height="41" viewBox="0 0 50 41" fill="none" xmlns="http://www.w3.org/2000/svg">
<path d="M50 4.80867C48.1568 5.627 46.1811 6.17645 44.1041 6.42584C46.224 5.15548 47.8529 3.14473 48.6166 0.752085C46.6371 1.92503 44.4354 2.77843 42.1012 3.23825C40.2307 1.24308 37.5653 0 34.6154 0C28.9494 0 24.3551 4.59044 24.3551 10.2564C24.3551 11.0592 24.4486 11.8424 24.624 12.5945C16.0977 12.1658 8.54181 8.08199 3.47985 1.87437C2.59528 3.39412 2.09259 5.15548 2.09259 7.03375C2.09259 10.5915 3.90071 13.7324 6.65576 15.5756C4.97233 15.521 3.39023 15.0573 2.00686 14.2896C2.00686 14.3325 2.00686 14.3753 2.00686 14.4182C2.00686 19.3905 5.54516 23.5329 10.233 24.4798C9.37573 24.7136 8.46777 24.8383 7.53254 24.8383C6.87008 24.8383 6.22711 24.7759 5.59972 24.6512C6.90905 28.7234 10.6968 31.6967 15.182 31.7785C11.6749 34.5297 7.25197 36.1663 2.4433 36.1663C1.61328 36.1663 0.798847 36.1196 0 36.0221C4.53589 38.937 9.92908 40.6321 15.7236 40.6321C34.592 40.6321 44.9108 25.002 44.9108 11.4488C44.9108 11.0046 44.8991 10.5565 44.8835 10.12C46.8864 8.6743 48.6244 6.86618 50 4.80867Z" fill="white"/>
</svg>
