<svg width="51" height="52" viewBox="0 0 51 52" fill="none" xmlns="http://www.w3.org/2000/svg">
<g clip-path="url(#clip0_142_491)">
<path d="M33.0923 25.6321L42.0588 10.1488L46.3917 25.6321L42.0588 41.1119L33.0923 25.6321ZM28.7219 28.1465L37.6899 43.6275L22.0714 39.6262L10.7881 28.1465H28.7219ZM37.6878 7.63236L28.7219 23.1157H10.7881L22.0714 11.6353L37.6878 7.63236ZM50.4884 20.363L45.0181 0.0117188L24.6002 5.4658L21.5778 10.7797L15.4447 10.7358L0.5 25.6336L15.4447 40.5279H15.4453L21.5757 40.4825L24.6024 45.7964L45.0181 51.2496L50.4884 30.9021L47.3819 25.6321L50.4884 20.363Z" fill="white"/>
</g>
<defs>
<clipPath id="clip0_142_491">
<rect width="50" height="51.3672" fill="white" transform="translate(0.5)"/>
</clipPath>
</defs>
</svg>
