<svg width="26" height="26" viewBox="0 0 26 26" fill="none" xmlns="http://www.w3.org/2000/svg">
<path d="M24.1494 13.1179L25.7518 10.4035C25.8162 10.2681 25.825 10.1128 25.7762 9.97294L22.6024 0.882162C22.5048 0.604733 22.214 0.447154 21.9322 0.515956L12.6039 2.78865C12.4264 2.83304 12.2799 2.95955 12.2111 3.13044L11.219 5.61398H8.1939C8.03632 5.61398 7.88318 5.68057 7.77665 5.79598L0.958566 13.1822C0.74772 13.4108 0.758818 13.7659 0.98298 13.979L8.13398 20.7971C8.23829 20.8992 8.38034 20.9547 8.5246 20.9547H11.7849L12.7792 23.4382C12.8525 23.6224 13.0167 23.7534 13.2098 23.7867L23.1307 25.4912C23.1617 25.4978 23.195 25.5001 23.2261 25.5001C23.4902 25.5001 23.7232 25.3181 23.781 25.054L25.794 15.8322C25.825 15.6902 25.8006 15.5415 25.723 15.415L24.1494 13.1179ZM11.219 5.61398L19.2267 4.14694L15.012 12.4321H5.44847L11.219 5.61398ZM11.7872 20.9547L5.44847 14.7048H15.012L19.9835 22.1865L11.7872 20.9547ZM22.0498 20.897L17.2847 13.5684L21.4506 5.28329L24.1494 13.1201L22.0498 20.897Z" fill="black"/>
</svg>
