<svg xmlns="http://www.w3.org/2000/svg" enable-background="new 0 0 24 24" viewBox="0 0 24 24"><polygon points="9.203 18.737 9.198 18.732 9.203 18.737"/><polygon points="13.375 15.112 13.374 15.112 13.374 15.111 13.375 15.112"/><polygon points="23.925 12.838 23.926 12.859 23.93 12.876"/><polygon points="22.897 10.068 22.912 10.094 22.914 10.098"/><path fill="#1976D2" d="M15.752,10.418h-0.025c-0.835,0-1.599,0.298-2.188,0.79c-0.592,0.5-0.985,1.206-1.031,2.006h0.001c-0.045,0.822,0.285,1.584,0.865,2.151c0.61,0.581,1.435,0.939,2.343,0.939h0.032h0.002h0.033c0.909,0,1.734-0.357,2.341-0.938c0.58-0.567,0.91-1.33,0.865-2.153c-0.045-0.799-0.436-1.505-1.028-2.005C17.383,10.718,16.602,10.418,15.752,10.418L15.752,10.418z"/><path fill="#FF9800" d="M22.088,18.965c0.701-0.767,1.247-1.69,1.577-2.709l0.015-0.053c0.203-0.624,0.32-1.342,0.32-2.087c0-0.342-0.027-0.676-0.074-1.004c-0.152-1.028-0.503-1.951-1.015-2.764c-0.503-0.797-1.118-1.473-1.831-2.027l-0.018-0.013h0.002l-7.518-5.772c-0.492-0.378-1.319-0.376-1.86,0.002c-0.547,0.382-0.609,1.015-0.123,1.415l-0.001,0.001l3.126,2.543l-9.543,0.01C4.357,6.508,3.6,7.025,3.45,7.679c-0.154,0.665,0.38,1.217,1.2,1.22v0.002l4.83-0.011l-8.654,6.642c-0.813,0.622-1.075,1.658-0.563,2.313c0.52,0.667,1.625,0.668,2.447,0.004l4.704-3.849c0,0-0.069,0.52-0.063,0.83l-0.003-0.001c0.007,0.314,0.106,0.922,0.257,1.398c0.344,1.071,0.89,1.992,1.597,2.762c0.764,0.837,1.69,1.511,2.73,1.975l0.052,0.021c1.062,0.48,2.303,0.76,3.609,0.76h0.051h0.003h0.015c1.3,0,2.534-0.278,3.649-0.776c1.089-0.491,2.013-1.167,2.77-1.999L22.088,18.965L22.088,18.965z M20.471,14.954c-0.238,0.631-0.588,1.17-1.031,1.617l-0.002,0.001c-0.97,0.988-2.326,1.548-3.795,1.55c-1.47,0.004-2.827-0.552-3.797-1.538c-0.446-0.448-0.798-0.989-1.026-1.591l-0.01-0.031c-0.16-0.431-0.252-0.929-0.252-1.448c0-0.752,0.195-1.458,0.535-2.073c0.303-0.538,0.687-0.992,1.142-1.362l0.009-0.007c0.942-0.768,2.141-1.183,3.396-1.185c1.255-0.002,2.454,0.41,3.398,1.175c0.48,0.391,0.869,0.854,1.152,1.367c0.279,0.492,0.465,1.072,0.521,1.689l0.001,0.016c0.01,0.109,0.016,0.236,0.016,0.364C20.73,14.01,20.638,14.499,20.471,14.954L20.471,14.954z"/><polygon points="19.359 20.698 19.312 20.717 19.303 20.722 19.359 20.698"/><path fill="#1667B7" d="M13.624,11.139c-0.029,0.023-0.057,0.045-0.085,0.069c-0.592,0.5-0.985,1.206-1.031,2.006h0.001c-0.045,0.822,0.285,1.584,0.865,2.151c0.61,0.581,1.435,0.939,2.343,0.939h0.032h0.002h0.033c0.839,0,1.606-0.304,2.197-0.808L13.624,11.139L13.624,11.139z"/><path fill="#DE8400" d="M19.359,20.698L19.359,20.698l-0.056,0.024l0.01-0.005L19.359,20.698L19.359,20.698z M8.988,6.503L5.145,6.507C4.357,6.508,3.6,7.025,3.45,7.679c-0.154,0.665,0.38,1.217,1.2,1.22v0.002l4.83-0.011l-8.654,6.642c-0.813,0.622-1.075,1.658-0.563,2.313c0.26,0.334,0.668,0.501,1.113,0.501c0.443,0,0.924-0.166,1.335-0.497l4.704-3.849c0,0-0.069,0.52-0.063,0.83l-0.003-0.001c0.007,0.314,0.106,0.922,0.257,1.398c0.344,1.071,0.89,1.992,1.597,2.762c0.764,0.837,1.69,1.511,2.73,1.975l0.052,0.021c1.062,0.48,2.303,0.76,3.609,0.76h0.051h0.003h0.015c1.3,0,2.534-0.278,3.649-0.776c0.946-0.427,1.768-0.993,2.464-1.68l-2.531-2.531c-0.953,0.871-2.228,1.361-3.601,1.362c-0.006,0-0.012,0-0.017,0c-1.464,0-2.814-0.555-3.78-1.538c-0.446-0.448-0.798-0.989-1.026-1.591l-0.01-0.031c-0.16-0.431-0.252-0.929-0.252-1.448c0-0.752,0.195-1.458,0.535-2.073c0.303-0.538,0.687-0.992,1.142-1.362l0.009-0.007c0.057-0.047,0.116-0.092,0.175-0.136L8.988,6.503L8.988,6.503z"/><polygon points="19.359 20.698 19.312 20.717 19.303 20.722 19.359 20.698"/></svg>