<svg xmlns="http://www.w3.org/2000/svg" viewBox="0 0 48 48"><path fill="#0288D1" d="M42 37a5 5 0 0 1-5 5H11a5 5 0 0 1-5-5V11a5 5 0 0 1 5-5h26a5 5 0 0 1 5 5z"/><path fill="#FFF" d="M12 19h5v17h-5zM14.484 17h-.027C12.965 17 12 15.887 12 14.5c0-1.422.996-2.5 2.516-2.5s2.457 1.078 2.484 2.5c0 1.387-.965 2.5-2.516 2.5zM36 36h-5v-9.098c0-2.199-1.227-3.699-3.191-3.699-1.5 0-2.313 1.012-2.707 1.988-.145.352-.102 1.32-.102 1.809v9h-5V19h5v2.617C25.723 20.5 26.852 19 29.738 19 33.316 19 36 21.25 36 26.273z"/></svg>