<svg width="40" height="46" viewBox="0 0 40 46" fill="none" xmlns="http://www.w3.org/2000/svg">
<path d="M39.5273 33.75C38.4492 36.1445 37.9297 37.2148 36.5429 39.3281C34.6015 42.2812 31.8633 45.9687 28.4804 45.9922C25.4687 46.0195 24.6914 44.0273 20.6015 44.0625C16.5156 44.082 15.664 46.0312 12.6484 46C9.2617 45.9688 6.67186 42.6484 4.73045 39.6992C-0.699239 31.4297 -1.27346 21.7344 2.08201 16.5781C4.45701 12.9219 8.21092 10.7734 11.7383 10.7734C15.332 10.7734 17.5898 12.7461 20.5586 12.7461C23.4414 12.7461 25.1953 10.7695 29.3515 10.7695C32.4922 10.7695 35.8125 12.4805 38.1875 15.4336C30.4219 19.6914 31.6836 30.7812 39.5273 33.75ZM26.1953 7.46875C27.707 5.52734 28.8554 2.78906 28.4375 0C25.9726 0.167969 23.0898 1.74219 21.4062 3.78125C19.8789 5.64062 18.6133 8.39844 19.1054 11.0664C21.7969 11.1523 24.582 9.54688 26.1953 7.46875Z" fill="black"/>
</svg>
