<svg width="50" height="42" viewBox="0 0 50 42" fill="none" xmlns="http://www.w3.org/2000/svg">
<path d="M10 29.1818C11.5 28.2727 12.5 26.909 12.5 25.5454C12.5 23.7272 11.5 22.3636 9.5 21.4545V16L27.5 23.2727L55 11.909L27.5 0.54541L0 11.909L6 14.1818V21.4545C4 22.3636 3 23.7272 3 25.5454C3 26.909 4 28.2727 5.5 29.1818L3 36.909C1.5 41.4545 5.5 41.4545 5.5 41.4545H10.5C10.5 41.4545 14.5 41.4545 13 36.909L10 29.1818Z" fill="white"/>
<path d="M17.5002 24.1818C17.5002 24.6364 17.5002 25.0909 17.5002 25.5455C17.5002 27.3636 16.5002 29.1818 15.5002 30.5455C16.5002 32.3636 17.5002 34.1818 17.5002 36.9091V39.6364C20.0002 40.5455 23.5002 41.4545 27.5002 41.4545C40.0002 41.4545 45.0002 34.6364 45.0002 34.6364V21L27.5002 28.2727L17.5002 24.1818Z" fill="white"/>
</svg>
