<svg width="50" height="43" viewBox="0 0 50 43" fill="none" xmlns="http://www.w3.org/2000/svg">
<path d="M3 0C1.34766 0 0 1.34766 0 3V29.0938C1.46484 21.2969 3.10547 12.5508 3.1875 12.125C3.69531 9.53516 5.64844 8 8.4375 8H47V7C47 5.34766 45.6523 4 44 4H18.0312C17.7539 3.89844 17.1836 2.99219 16.875 2.5C16.1055 1.27344 15.3164 0 14 0H3ZM8.4375 10C7.15625 10 5.5625 10.4492 5.15625 12.5312C5.02734 13.1797 1.13281 33.9102 0 39.9375V40C0 41.6523 1.34766 43 3 43H42C43.6211 43 44.9453 41.7031 45 40.0938L49.9688 13.1875L50 13C50 11.3477 48.6523 10 47 10H8.4375Z" fill="white"/>
</svg>
