<svg width="17" height="27" viewBox="0 0 17 27" fill="none" xmlns="http://www.w3.org/2000/svg">
<mask id="mask0_33_224" style="mask-type:luminance" maskUnits="userSpaceOnUse" x="0" y="0" width="8" height="27">
<path d="M0 2.29937C0 5.16656 0.167871 20.6972 0.672257 26.0979C1.34477 26.6046 7.56372 26.7733 7.56372 26.7733C-2.35303 11.4138 2.52116 3.98709 5.04257 0.611391C3.32858 1.07046 1.64472 1.63407 0 2.29937Z" fill="white"/>
</mask>
<g mask="url(#mask0_33_224)">
<path d="M-6.01196 10.3842L3.85921 -15.9811L11.2226 17.0004L1.35145 43.366L-6.01196 10.3842Z" fill="url(#paint0_linear_33_224)"/>
</g>
<mask id="mask1_33_224" style="mask-type:luminance" maskUnits="userSpaceOnUse" x="1" y="0" width="16" height="27">
<path d="M7.56324 26.7728H7.56375C6.05111 23.3976 2.95639e-05 12.0887 4.53795 7.36305C8.40414 3.31226 16.8075 6.01287 16.8075 6.01287C16.8075 6.01287 16.3033 3.48322 15.9671 2.46801C15.8353 2.16677 15.5953 1.92578 15.2948 1.79267C11.8604 1.10728 8.37453 0.712062 4.87421 0.611391C5.04208 0.611391 -4.20215 8.54433 7.56324 26.7728Z" fill="white"/>
</mask>
<g mask="url(#mask1_33_224)">
<path d="M-3.46121 -6.04705L19.6167 1.53418L16.0664 33.4315L-7.01147 25.85L-3.46121 -6.04705Z" fill="url(#paint1_linear_33_224)"/>
</g>
<mask id="mask2_33_224" style="mask-type:luminance" maskUnits="userSpaceOnUse" x="2" y="8" width="15" height="19">
<path d="M7.56317 26.9414C7.56317 26.9411 7.56317 26.9406 7.56317 26.9401C7.56317 26.9406 7.56317 26.9411 7.56317 26.9414ZM3.52911 8.8803V9.04894V9.05049C0.848069 14.6075 7.53098 26.7153 7.56291 26.9401C7.39478 24.9751 7.39478 22.9992 7.56291 21.0342C7.73078 19.1773 7.89917 17.6585 10.2519 16.9834C12.2486 16.5717 14.27 16.2903 16.303 16.1418C16.1351 15.9726 15.1266 15.4664 9.57994 15.635C6.2184 15.635 6.38627 12.2593 8.90742 12.0904C10.8699 12.0212 12.8349 12.0776 14.7901 12.2593C14.7901 12.2593 11.5967 11.7526 9.41155 11.2467C8.15844 11.1996 7.18082 10.1455 7.2282 8.89214L7.22871 8.88004H3.52911V8.8803Z" fill="white"/>
</mask>
<g mask="url(#mask2_33_224)">
<path d="M16.3034 8.88038H0.848145V26.9417H16.3034V8.88038Z" fill="url(#paint2_radial_33_224)"/>
</g>
<mask id="mask3_33_224" style="mask-type:luminance" maskUnits="userSpaceOnUse" x="3" y="5" width="14" height="5">
<path d="M4.53793 7.36255C4.14452 7.82806 3.8062 8.33708 3.52942 8.88008L3.6978 9.21763H7.05909L7.22902 8.88008C7.3974 7.86745 8.57379 6.17947 12.6076 6.34812L12.6055 6.34966C16.6393 6.68746 16.6393 6.01186 16.6393 6.01186C16.6393 6.01186 13.95 5.13028 10.9237 5.13002C8.65412 5.13028 6.19476 5.62643 4.53793 7.36255Z" fill="white"/>
</mask>
<g mask="url(#mask3_33_224)">
<path d="M16.639 5.13058H3.52881V9.21793H16.639V5.13058Z" fill="url(#paint3_radial_33_224)"/>
</g>
<path d="M7.56364 26.7728C7.56364 26.7728 6.55513 25.2537 5.37849 23.0592C4.63028 21.7732 4.01106 20.4163 3.52959 19.0085C2.84961 17.4366 2.34239 15.7952 2.01695 14.1137C1.812 13.2275 1.69923 12.3227 1.68069 11.4131V8.88007C1.79913 7.37618 2.13873 5.89778 2.68869 4.49302C3.10991 3.54888 3.6161 2.64464 4.20133 1.79241C4.42121 1.45693 4.70778 1.17036 5.043 0.950741C4.74125 1.27 4.46009 1.60806 4.20133 1.96337C3.55791 2.84058 3.04812 3.80841 2.68869 4.8352C2.13847 6.24048 1.79861 7.71914 1.68018 9.22379V11.7516C1.70927 12.6044 1.82204 13.4525 2.01643 14.2834C2.34188 15.9654 2.84935 17.6068 3.52959 19.1789C4.0108 20.5868 4.63002 21.9436 5.37849 23.2297C6.02628 24.4591 6.75621 25.6432 7.56364 26.7746V26.7728Z" fill="#FDBC5F"/>
<mask id="mask4_33_224" style="mask-type:luminance" maskUnits="userSpaceOnUse" x="6" y="12" width="11" height="5">
<path d="M8.74016 12.0887C6.21875 12.2576 6.05114 15.6333 9.41242 15.6333C14.9581 15.6333 15.9676 16.14 16.1355 16.14L14.6229 12.2576C13.1911 12.1278 11.7544 12.0627 10.3174 12.0627C9.79167 12.0624 9.26592 12.0712 8.74016 12.0887Z" fill="white"/>
</mask>
<g mask="url(#mask4_33_224)">
<path d="M16.1355 12.0624H6.05115V16.1397H16.1355V12.0624Z" fill="url(#paint4_radial_33_224)"/>
</g>
<defs>
<linearGradient id="paint0_linear_33_224" x1="-1.58933" y1="24.8832" x2="13.8101" y2="21.4452" gradientUnits="userSpaceOnUse">
<stop stop-color="#FF6100"/>
<stop offset="0.001" stop-color="#FF6100"/>
<stop offset="0.281" stop-color="#FF7A0E"/>
<stop offset="0.521" stop-color="#FF912B"/>
<stop offset="0.692" stop-color="#DE8530"/>
<stop offset="0.764" stop-color="#DA832F"/>
<stop offset="0.839" stop-color="#FF7C00"/>
<stop offset="0.914" stop-color="#FF7C00"/>
<stop offset="0.989" stop-color="#9D5F26"/>
<stop offset="0.995" stop-color="#9A5E26"/>
<stop offset="1" stop-color="#FF7C02"/>
</linearGradient>
<linearGradient id="paint1_linear_33_224" x1="121.04" y1="51.4072" x2="372.419" y2="79.3865" gradientUnits="userSpaceOnUse">
<stop stop-color="#FF670B"/>
<stop offset="0.001" stop-color="#A75726"/>
<stop offset="0.281" stop-color="#C5702B"/>
<stop offset="0.521" stop-color="#D7802F"/>
<stop offset="0.692" stop-color="#DE8530"/>
<stop offset="0.764" stop-color="#DA832F"/>
<stop offset="0.839" stop-color="#CE7C2E"/>
<stop offset="0.914" stop-color="#B9702B"/>
<stop offset="0.989" stop-color="#9D5F26"/>
<stop offset="0.995" stop-color="#9A5E26"/>
<stop offset="1" stop-color="#9A5E26"/>
</linearGradient>
<radialGradient id="paint2_radial_33_224" cx="0" cy="0" r="1" gradientUnits="userSpaceOnUse" gradientTransform="translate(11.7959 17.9663) scale(12.2689 12.2689)">
<stop stop-color="#FF8400"/>
<stop offset="0.244792" stop-color="#FF8500"/>
<stop offset="0.338" stop-color="#FF8400"/>
<stop offset="0.651" stop-color="#FF8605"/>
<stop offset="0.869" stop-color="#FF8605"/>
<stop offset="1" stop-color="#FC9400"/>
<stop offset="1" stop-color="#FF8605"/>
</radialGradient>
<radialGradient id="paint3_radial_33_224" cx="0" cy="0" r="1" gradientUnits="userSpaceOnUse" gradientTransform="translate(230.238 18.7309) scale(42.3475 42.3475)">
<stop stop-color="#FF8400"/>
<stop offset="0.338" stop-color="#AB8052"/>
<stop offset="0.374" stop-color="#B18453"/>
<stop offset="0.651" stop-color="#DAA259"/>
<stop offset="0.869" stop-color="#F4B55E"/>
<stop offset="1" stop-color="#FF9906"/>
</radialGradient>
<radialGradient id="paint4_radial_33_224" cx="0" cy="0" r="1" gradientUnits="userSpaceOnUse" gradientTransform="translate(14.4739 12.0825) scale(4.26851 4.26852)">
<stop stop-color="#DE8530"/>
<stop offset="0.226" stop-color="#DA832F"/>
<stop offset="0.451" stop-color="#CE7C2D"/>
<stop offset="0.675" stop-color="#BA702A"/>
<stop offset="0.899" stop-color="#9E6026"/>
<stop offset="1" stop-color="#8F5723"/>
</radialGradient>
</defs>
</svg>
