<svg width="35" height="31" viewBox="0 0 35 31" fill="none" xmlns="http://www.w3.org/2000/svg">
<path d="M28.0711 10.0986C27.7123 9.97549 27.3504 9.86143 26.9858 9.75654C27.0471 9.50629 27.1034 9.25906 27.1535 9.01618C27.9751 5.02776 27.438 1.81461 25.6034 0.756683C23.8443 -0.257512 20.9676 0.800017 18.0622 3.32852C17.7759 3.57817 17.4959 3.835 17.2225 4.09879C17.0395 3.92338 16.8533 3.75137 16.6639 3.58286C13.619 0.879309 10.5669 -0.260146 8.73426 0.800807C6.9768 1.81816 6.4564 4.83875 7.19611 8.61867C7.2697 8.99303 7.35279 9.36546 7.44531 9.7356C7.01329 9.85836 6.59641 9.98902 6.19745 10.1281C2.62749 11.3728 0.347656 13.3233 0.347656 15.3466C0.347656 17.4362 2.79516 19.5322 6.51344 20.8031C6.81488 20.9057 7.11884 21.0008 7.42503 21.0883C7.32558 21.4869 7.2373 21.8883 7.16028 22.2919C6.45509 26.0062 7.00578 28.9554 8.75849 29.9663C10.5688 31.0103 13.6071 29.9373 16.5656 27.3511C16.8055 27.1409 17.0401 26.9247 17.2692 26.7027C17.5652 26.9883 17.8691 27.2656 18.1806 27.5343C21.0465 30.0003 23.8767 30.996 25.6277 29.9824C27.4363 28.9354 28.0241 25.7671 27.261 21.9125C27.2008 21.6105 27.1334 21.3101 27.0588 21.0113C27.2722 20.9481 27.4816 20.8831 27.6857 20.8154C31.5513 19.5347 34.0663 17.4642 34.0663 15.3466C34.0663 13.316 31.7129 11.3523 28.0711 10.0986ZM27.2328 19.4482C27.0484 19.5092 26.8592 19.568 26.6664 19.6253C26.2397 18.2743 25.6638 16.8379 24.959 15.3536C25.6315 13.9047 26.1853 12.4866 26.6 11.1444C26.945 11.2443 27.2797 11.3495 27.6024 11.4605C30.7227 12.5348 32.6259 14.1229 32.6259 15.3466C32.6259 16.65 30.5704 18.3422 27.2328 19.4482ZM25.8479 22.1923C26.1854 23.8967 26.2335 25.4377 26.01 26.6425C25.8092 27.7251 25.4054 28.4467 24.9059 28.7358C23.8434 29.3509 21.5709 28.5514 19.1201 26.4424C18.8304 26.1926 18.5477 25.9348 18.2723 25.6693C19.2225 24.6302 20.172 23.4222 21.0987 22.0806C22.7288 21.936 24.2688 21.6994 25.6654 21.3766C25.7341 21.6541 25.7953 21.9262 25.8479 22.1923ZM11.8431 28.6295C10.8049 28.9961 9.97803 29.0066 9.47818 28.7184C8.41459 28.105 7.97243 25.737 8.57554 22.5606C8.64724 22.1852 8.72933 21.8119 8.82172 21.4411C10.2029 21.7467 11.7317 21.9664 13.3656 22.0989C14.2986 23.4117 15.2756 24.6183 16.2601 25.6749C16.0509 25.8774 15.8367 26.0747 15.6177 26.2666C14.3094 27.4101 12.9985 28.2215 11.8431 28.6295ZM6.97944 19.4401C5.33526 18.8781 3.97742 18.1478 3.04673 17.3508C2.21035 16.6346 1.78821 15.9235 1.78821 15.3466C1.78821 14.1188 3.61863 12.5527 6.67162 11.4883C7.04213 11.3592 7.4299 11.2374 7.83228 11.1231C8.25429 12.4955 8.80776 13.9305 9.47568 15.3816C8.79906 16.8542 8.2377 18.3121 7.8116 19.7008C7.53212 19.6207 7.25465 19.5338 6.97944 19.4401ZM8.60979 8.34194C7.97612 5.1035 8.39694 2.6606 9.45605 2.04748C10.584 1.39444 13.0784 2.32552 15.7076 4.66002C15.879 4.81259 16.0477 4.96826 16.2135 5.12694C15.2338 6.17894 14.2658 7.37661 13.3411 8.68163C11.7552 8.82862 10.2372 9.06465 8.84161 9.3809C8.75562 9.03662 8.67832 8.69011 8.60979 8.34194ZM23.1545 11.9335C22.8249 11.3641 22.483 10.8019 22.1291 10.2472C23.205 10.3832 24.2358 10.5638 25.2037 10.7846C24.9132 11.716 24.551 12.6898 24.1246 13.6882C23.813 13.0969 23.4895 12.5119 23.1545 11.9335ZM17.2232 6.15642C17.8876 6.87623 18.553 7.67982 19.2075 8.55176C17.8798 8.48906 16.5499 8.48879 15.2222 8.55097C15.8774 7.68706 16.5484 6.88453 17.2232 6.15642ZM11.2538 11.9434C10.923 12.5171 10.6056 13.0985 10.3019 13.687C9.88254 12.6922 9.52362 11.7139 9.23056 10.7693C10.1926 10.5541 11.2185 10.3781 12.2875 10.2445C11.9297 10.8026 11.585 11.3691 11.2538 11.9434ZM12.3182 20.5511C11.2138 20.4279 10.1724 20.261 9.21067 20.0515C9.50834 19.09 9.87516 18.091 10.3036 17.0748C10.6085 17.6638 10.9272 18.2455 11.2595 18.8195C11.6011 19.4096 11.9549 19.9875 12.3182 20.5511ZM17.263 24.6382C16.5802 23.9017 15.8992 23.0868 15.2342 22.2103C15.8799 22.2356 16.538 22.2485 17.207 22.2485C17.8943 22.2485 18.5737 22.2331 19.2424 22.2034C18.5858 23.0956 17.9229 23.9117 17.263 24.6382ZM24.1382 17.0229C24.5889 18.0503 24.9688 19.0441 25.2704 19.9891C24.2928 20.2122 23.2372 20.3919 22.1251 20.5253C22.4814 19.9603 22.8266 19.3883 23.1602 18.8096C23.4994 18.2214 23.8255 17.6257 24.1382 17.0229ZM21.9125 18.0899C21.4017 18.9772 20.8622 19.8476 20.2949 20.6998C19.2672 20.7726 18.2373 20.8088 17.207 20.8082C16.1576 20.8082 15.137 20.7756 14.1541 20.7118C13.572 19.8616 13.0222 18.9896 12.506 18.0978C11.9922 17.2108 11.5124 16.3045 11.0674 15.381C11.5113 14.4573 11.9898 13.5506 12.5018 12.6628L12.5017 12.6629C13.0135 11.775 13.5589 10.9067 14.1366 10.0601C15.1394 9.98428 16.1677 9.94476 17.2069 9.94476C18.2508 9.94476 19.2806 9.98467 20.283 10.0611C20.855 10.9064 21.3969 11.7716 21.9077 12.6552C22.4215 13.541 22.9063 14.4432 23.3613 15.3606C22.9109 16.2873 22.4277 17.1976 21.9125 18.0899ZM24.8839 2.00454C26.013 2.65573 26.4521 5.28171 25.7427 8.72536C25.6974 8.94506 25.6466 9.16884 25.5912 9.39578C24.1922 9.07282 22.6731 8.83271 21.0827 8.68347C20.1562 7.3641 19.1961 6.16458 18.2324 5.12615C18.485 4.88268 18.7436 4.64552 19.0079 4.4149C21.4973 2.2486 23.8239 1.39326 24.8839 2.00454ZM17.207 12.3356C18.8699 12.3356 20.218 13.6837 20.218 15.3466C20.218 17.0095 18.8699 18.3576 17.207 18.3576C15.5441 18.3576 14.196 17.0095 14.196 15.3466C14.196 13.6837 15.5441 12.3356 17.207 12.3356Z" fill="#00D8FF"/>
</svg>
