<svg width="26" height="26" viewBox="0 0 26 26" fill="none" xmlns="http://www.w3.org/2000/svg">
<path d="M24.1494 12.8943L25.7518 10.1799C25.8162 10.0445 25.825 9.88919 25.7762 9.74936L22.6024 0.658583C22.5048 0.381154 22.214 0.223574 21.9322 0.292377L12.6039 2.56507C12.4264 2.60946 12.2799 2.73597 12.2111 2.90686L11.219 5.3904H8.1939C8.03632 5.3904 7.88318 5.45699 7.77665 5.5724L0.958566 12.9587C0.74772 13.1873 0.758818 13.5424 0.98298 13.7554L8.13398 20.5735C8.23829 20.6756 8.38034 20.7311 8.5246 20.7311H11.7849L12.7792 23.2146C12.8525 23.3988 13.0167 23.5298 13.2098 23.5631L23.1307 25.2676C23.1617 25.2743 23.195 25.2765 23.2261 25.2765C23.4902 25.2765 23.7232 25.0945 23.781 24.8304L25.794 15.6087C25.825 15.4666 25.8006 15.3179 25.723 15.1914L24.1494 12.8943ZM11.219 5.3904L19.2267 3.92336L15.012 12.2085H5.44847L11.219 5.3904ZM11.7872 20.7311L5.44847 14.4812H15.012L19.9835 21.9629L11.7872 20.7311ZM22.0498 20.6734L17.2847 13.3448L21.4506 5.05971L24.1494 12.8965L22.0498 20.6734Z" fill="#8A8A8A"/>
</svg>
