<svg width="51" height="57" viewBox="0 0 51 57" fill="none" xmlns="http://www.w3.org/2000/svg">
<g clip-path="url(#clip0_142_494)">
<path d="M50.4158 16.5469C50.4154 15.6035 50.2137 14.7699 49.8057 14.0545C49.4049 13.351 48.8047 12.7613 47.9996 12.2951C41.3541 8.46326 34.7021 4.64314 28.0588 0.807398C26.2678 -0.226587 24.5313 -0.188891 22.7535 0.859937C20.1084 2.4199 6.86523 10.0072 2.91895 12.2929C1.29375 13.2338 0.50293 14.6736 0.502539 16.5451C0.5 24.2511 0.502539 31.957 0.5 39.6633C0.500391 40.5859 0.693555 41.4033 1.08359 42.108C1.48457 42.8328 2.09316 43.4386 2.9168 43.9154C6.86328 46.2011 20.1082 53.7879 22.7527 55.3482C24.5312 56.3976 26.2678 56.4351 28.0594 55.4008C34.7029 51.5648 41.3553 47.7449 48.0018 43.9131C48.8254 43.4365 49.434 42.8302 49.835 42.106C50.2244 41.4013 50.418 40.584 50.4184 39.6611C50.4184 39.6611 50.4184 24.2531 50.4158 16.5469Z" fill="white"/>
<path d="M25.5356 28.0293L1.08362 42.1082C1.48459 42.833 2.09319 43.4389 2.91682 43.9156C6.86331 46.2014 20.1082 53.7881 22.7528 55.3484C24.5313 56.3979 26.2678 56.4354 28.0594 55.401C34.703 51.565 41.3553 47.7451 48.0018 43.9133C48.8254 43.4367 49.434 42.8305 49.835 42.1062L25.5356 28.0293Z" fill="#8C8C8C"/>
<path d="M18.2932 32.1996C19.7161 34.6836 22.3909 36.359 25.4592 36.359C28.5465 36.359 31.2366 34.6623 32.6522 32.1518L25.5356 28.0293L18.2932 32.1996Z" fill="#8C8C8C"/>
<path d="M50.4158 16.5471C50.4154 15.6037 50.2136 14.7701 49.8056 14.0547L25.5355 28.0293L49.8349 42.1062C50.2244 41.4016 50.4179 40.5842 50.4183 39.6613C50.4183 39.6613 50.4183 24.2533 50.4158 16.5471Z" fill="#A9A9A9"/>
<path d="M49.0797 29.0353H47.1809V30.9345H45.2817V29.0353H43.3831V27.1366H45.2817V25.2378H47.1809V27.1366H49.0797V29.0353Z" fill="#2B2B2B"/>
<path d="M42.151 29.0353H40.2524V30.9345H38.3535V29.0353H36.4547V27.1366H38.3535V25.2378H40.2524V27.1366H42.151V29.0353Z" fill="#2B2B2B"/>
<path d="M32.6522 32.1518C31.2366 34.6623 28.5465 36.359 25.4592 36.359C22.3909 36.359 19.7161 34.6836 18.2932 32.1996C17.602 30.9926 17.2045 29.5951 17.2045 28.1043C17.2045 23.5455 20.9004 19.8498 25.4592 19.8498C28.5079 19.8498 31.1686 21.5043 32.5985 23.9629L39.8135 19.8082C36.9458 14.8578 31.5917 11.5273 25.4592 11.5273C16.3038 11.5273 8.88208 18.9492 8.88208 28.1043C8.88208 31.1078 9.6811 33.9244 11.0776 36.3539C13.9381 41.3305 19.3075 44.6814 25.4592 44.6814C31.6223 44.6814 37 41.317 39.8565 36.3258L32.6522 32.1518Z" fill="#2B2B2B"/>
</g>
<defs>
<clipPath id="clip0_142_494">
<rect width="50" height="56.25" fill="white" transform="translate(0.5)"/>
</clipPath>
</defs>
</svg>
