<svg width="51" height="45" viewBox="0 0 51 45" fill="none" xmlns="http://www.w3.org/2000/svg">
<g clip-path="url(#clip0_142_503)">
<path d="M41.61 14.4187C41.0913 14.2401 40.5539 14.0712 40.0005 13.9115C40.0914 13.5403 40.1749 13.1738 40.2491 12.8137C41.4675 6.89939 40.6709 2.13481 37.9507 0.566112C35.3423 -0.938066 31.0764 0.630281 26.7682 4.37964C26.3539 4.74018 25.9384 5.1219 25.5231 5.52195C25.2464 5.25727 24.9702 5.00148 24.6946 4.75682C20.1794 0.74776 15.6536 -0.941715 12.9361 0.631526C10.3302 2.14006 9.55844 6.61922 10.6552 12.2242C10.7611 12.7656 10.8849 13.3185 11.0249 13.8806C10.3844 14.0624 9.76599 14.2563 9.17432 14.4625C3.88073 16.308 0.5 19.2005 0.5 22.2008C0.5 25.2995 4.12921 28.4075 9.6429 30.2921C10.078 30.4408 10.5295 30.5814 10.9948 30.7149C10.8438 31.3229 10.7124 31.9186 10.6021 32.4997C9.55639 38.0074 10.3731 42.3808 12.972 43.8798C15.6565 45.4278 20.1618 43.8366 24.5489 40.0018C24.8956 39.6987 25.2436 39.3772 25.5922 39.0403C26.0441 39.4754 26.4952 39.8872 26.9439 40.2734C31.1933 43.9301 35.3902 45.4067 37.9868 43.9035C40.6686 42.351 41.5402 37.653 40.4086 31.9371C40.3222 31.5006 40.2216 31.0546 40.1087 30.6007C40.4251 30.5072 40.7357 30.4106 41.0386 30.3102C46.7706 28.4111 50.5 25.3409 50.5 22.2008C50.5 19.1897 47.0102 16.2777 41.61 14.4187ZM40.3668 28.2827C40.0934 28.3732 39.8129 28.4607 39.527 28.5455C38.8942 26.5423 38.0402 24.4121 36.9951 22.2112C37.9924 20.0628 38.8134 17.9598 39.4285 15.9695C39.94 16.1175 40.4364 16.2736 40.9148 16.4383C45.5417 18.0312 48.364 20.3862 48.364 22.2008C48.364 24.1337 45.316 26.6428 40.3668 28.2827ZM38.3132 32.352C38.8136 34.8794 38.8851 37.1646 38.5536 38.951C38.2558 40.5562 37.657 41.6264 36.9165 42.055C35.3407 42.9671 31.9711 41.7815 28.3369 38.6543C27.9203 38.2958 27.5007 37.913 27.0797 37.5079C28.4886 35.967 29.8967 34.1757 31.2709 32.1863C33.688 31.9718 35.9717 31.6212 38.0426 31.1425C38.1446 31.5539 38.2352 31.9574 38.3132 32.352ZM17.5461 41.8974C16.0066 42.4411 14.7805 42.4567 14.0393 42.0293C12.4621 41.1196 11.8065 37.6083 12.7008 32.8981C12.8033 32.3586 12.9252 31.8045 13.0657 31.2381C15.114 31.691 17.3809 32.017 19.8038 32.2134C21.1873 34.1601 22.636 35.9494 24.0959 37.5161C23.777 37.8241 23.4592 38.1172 23.1433 38.3935C21.2034 40.0892 19.2594 41.2923 17.5461 41.8974ZM10.3337 28.2709C7.89567 27.4376 5.88223 26.3546 4.50212 25.1727C3.26201 24.1107 2.63589 23.0563 2.63589 22.2008C2.63589 20.3801 5.35029 18.0579 9.87741 16.4795C10.4267 16.2879 11.0017 16.1074 11.5985 15.9379C12.2241 17.9731 13.0449 20.101 14.0354 22.2528C13.0321 24.4364 12.1997 26.5982 11.5679 28.6573C11.1425 28.535 10.7303 28.4063 10.3337 28.2709ZM12.7514 11.814C11.8117 7.0118 12.4358 3.38917 14.0062 2.48013C15.6789 1.51173 19.3778 2.89247 23.2764 6.35409C23.5255 6.57535 23.7757 6.80692 24.0266 7.04651C22.5739 8.6064 21.1384 10.3823 19.7672 12.3175C17.4157 12.5355 15.1647 12.8856 13.0951 13.3544C12.965 12.831 12.8497 12.3168 12.7514 11.814ZM34.3191 17.1397C33.8244 16.2851 33.3165 15.4507 32.7987 14.6391C34.394 14.8408 35.9224 15.1085 37.3578 15.4361C36.9269 16.8172 36.3898 18.2612 35.7575 19.7416C35.304 18.8805 34.8243 18.0123 34.3191 17.1397ZM25.5239 8.57303C26.5091 9.64039 27.4957 10.8321 28.4662 12.1251C27.4882 12.0789 26.4982 12.0549 25.5 12.0549C24.5112 12.0549 23.5285 12.0784 22.5566 12.1237C23.528 10.8428 24.5232 9.65268 25.5239 8.57303ZM16.6722 17.1544C16.178 18.0114 15.7072 18.8749 15.2608 19.7399C14.6388 18.2648 14.1067 16.8142 13.672 15.4135C15.0986 15.0943 16.6198 14.8332 18.205 14.6354C17.6799 15.4545 17.1678 16.2951 16.6722 17.1544ZM18.2506 29.9185C16.6129 29.7358 15.0687 29.4882 13.6425 29.1778C14.0841 27.7521 14.628 26.2705 15.2632 24.7636C15.7108 25.6281 16.1835 26.4919 16.6807 27.3507C17.1872 28.2257 17.712 29.0827 18.2506 29.9185ZM25.5829 35.9791C24.5706 34.8868 23.5608 33.6786 22.5746 32.3789C23.532 32.4165 24.508 32.4357 25.5 32.4357C26.5191 32.4357 27.5266 32.4127 28.5182 32.3686C27.5446 33.6917 26.5615 34.9018 25.5829 35.9791ZM35.7779 24.6868C36.4462 26.21 37.0096 27.6839 37.4569 29.0852C36.0072 29.416 34.4419 29.6823 32.7928 29.8803C33.3118 29.0577 33.8242 28.209 34.3277 27.336C34.837 26.4528 35.3206 25.5682 35.7779 24.6868ZM32.4775 26.2689C31.6959 27.6241 30.8934 28.9178 30.0788 30.139C28.5951 30.2451 27.0623 30.2997 25.5 30.2997C23.944 30.2997 22.4305 30.2514 20.973 30.1568C20.1256 28.9196 19.3057 27.6221 18.5291 26.2806C17.7546 24.9428 17.0419 23.5936 16.3959 22.252C17.0417 20.9074 17.7527 19.5567 18.5228 18.2213L18.5226 18.2215C19.2948 16.8825 20.1074 15.5913 20.9471 14.3619C22.4341 14.2495 23.9589 14.1908 25.4999 14.1908C27.0479 14.1908 28.5747 14.2499 30.0613 14.3633C30.8881 15.5838 31.6952 16.8708 32.4704 18.21C33.2544 19.5642 33.9746 20.9058 34.6259 22.2217C33.9766 23.5602 33.258 24.9153 32.4775 26.2689ZM36.8837 2.41659C38.5581 3.38214 39.2092 7.27622 38.1572 12.3826C38.0901 12.7084 38.0146 13.0403 37.9325 13.3766C35.8581 12.8979 33.6055 12.5418 31.2471 12.3205C29.8732 10.364 28.4495 8.5854 27.0205 7.04553C27.4047 6.67592 27.7884 6.32348 28.1704 5.99089C31.8618 2.77846 35.3118 1.51013 36.8837 2.41659ZM25.5 17.736C27.9658 17.736 29.9648 19.7349 29.9648 22.2008C29.9648 24.6666 27.9658 26.6656 25.5 26.6656C23.0342 26.6656 21.0352 24.6666 21.0352 22.2008C21.0352 19.7349 23.0342 17.736 25.5 17.736Z" fill="white"/>
</g>
<defs>
<clipPath id="clip0_142_503">
<rect width="50" height="44.5312" fill="white" transform="translate(0.5)"/>
</clipPath>
</defs>
</svg>
