<svg width="51" height="54" viewBox="0 0 51 54" fill="none" xmlns="http://www.w3.org/2000/svg">
<g clip-path="url(#clip0_142_466)">
<path d="M29.0713 8.24756V16.4958L43.3565 24.744V16.4958L29.0713 8.24756ZM0.5 16.4958V24.744L7.64261 28.8673V20.6199L0.5 16.4958ZM21.9278 20.6199L14.7852 24.744V49.487L21.9278 53.6111V37.1155L29.0713 41.2396V32.9914L21.9278 28.8673V20.6199Z" fill="black"/>
<path d="M29.0713 8.24756L7.64264 20.6199V28.8673L21.9279 20.6199V28.8673L29.0713 24.744V8.24756ZM50.5 12.3717L43.3566 16.4958V24.744L50.5 20.6199V12.3717ZM36.2139 28.8673L29.0713 32.9914V41.2396L36.2139 37.1155V28.8673ZM29.0713 41.2396L21.9279 37.1155V53.6111L29.0713 49.487V41.2396Z" fill="#8F8F8F"/>
<path d="M29.0713 0L0.5 16.4956L7.64261 20.6197L29.0713 8.24738L43.3565 16.4956L50.5 12.3715L29.0713 0ZM29.0713 24.7438L21.9278 28.8671L29.0713 32.9912L36.2139 28.8671L29.0713 24.7438Z" fill="white"/>
</g>
<defs>
<clipPath id="clip0_142_466">
<rect width="50" height="53.611" fill="white" transform="translate(0.5)"/>
</clipPath>
</defs>
</svg>
