<svg width="40" height="40" viewBox="0 0 40 40" fill="none" xmlns="http://www.w3.org/2000/svg">
<path d="M23.5977 30.3906C23.8672 30.6484 24.1953 30.7891 24.5703 30.7891C25.3555 30.7891 25.9648 30.1797 25.9648 29.4062C25.9648 29.0195 25.8125 28.668 25.543 28.3984L17.3398 20.3828L25.543 12.3906C25.8125 12.1211 25.9648 11.7578 25.9648 11.3828C25.9648 10.6094 25.3555 10 24.5703 10C24.1953 10 23.8672 10.1406 23.6094 10.3984L14.4922 19.3047C14.1641 19.6094 14 19.9844 14 20.3945C14 20.8047 14.1641 21.1562 14.4805 21.4727L23.5977 30.3906Z" fill="#3478F6"/>
</svg>
