<svg width="15" height="12" viewBox="0 0 15 12" fill="none" xmlns="http://www.w3.org/2000/svg">
<path d="M15 4.098C14.9988 3.01151 14.5667 1.96985 13.7984 1.20158C13.0302 0.433314 11.9885 0.0011909 10.902 2.83498e-05H7.30372V0.999352H10.902C11.7238 0.999352 12.512 1.32582 13.0931 1.90693C13.6742 2.48803 14.0007 3.27619 14.0007 4.098C14.0007 4.91981 13.6742 5.70797 13.0931 6.28908C12.512 6.87019 11.7238 7.19665 10.902 7.19665H1.91351L4.05777 5.05104L3.35101 4.34429L0 7.69631L3.35203 11.0483L4.05777 10.3416L1.9125 8.19597H10.902C11.9885 8.19481 13.0302 7.76269 13.7984 6.99442C14.5667 6.22616 14.9988 5.18449 15 4.098Z" fill="#AAAAAA"/>
</svg>
