<svg width="27" height="25" viewBox="0 0 27 25" fill="none" xmlns="http://www.w3.org/2000/svg">
<path d="M13.3219 0C6.24447 0 0.505432 5.73804 0.505432 12.8165C0.505432 18.4791 4.17773 23.2834 9.27014 24.978C9.91066 25.0967 10.1459 24.7 10.1459 24.3615C10.1459 24.0559 10.1338 23.0463 10.1284 21.9754C6.56288 22.7506 5.81052 20.4632 5.81052 20.4632C5.22747 18.9818 4.3874 18.5878 4.3874 18.5878C3.22461 17.7924 4.47511 17.8088 4.47511 17.8088C5.76205 17.8991 6.43972 19.1295 6.43972 19.1295C7.58288 21.0888 9.43805 20.5223 10.1694 20.1948C10.2844 19.3666 10.6166 18.801 10.9831 18.481C8.13639 18.157 5.14386 17.058 5.14386 12.1471C5.14386 10.7478 5.6445 9.60448 6.46435 8.70693C6.33128 8.38412 5.89262 7.08065 6.58851 5.3152C6.58851 5.3152 7.66479 4.97076 10.114 6.62898C11.1363 6.34501 12.2327 6.20263 13.3219 6.19773C14.4111 6.20263 15.5084 6.34491 16.5326 6.62898C18.9789 4.97086 20.0536 5.3153 20.0536 5.3153C20.7512 7.08055 20.3124 8.38422 20.1793 8.70693C21.001 9.60448 21.4983 10.7478 21.4983 12.1471C21.4983 17.0697 18.5 18.1536 15.6461 18.4709C16.1058 18.8686 16.5154 19.6486 16.5154 20.8444C16.5154 22.5591 16.5006 23.9393 16.5006 24.3615C16.5006 24.7026 16.7313 25.1022 17.3809 24.9762C22.4705 23.2798 26.1382 18.4773 26.1382 12.8166C26.1382 5.73804 20.4 0 13.3219 0ZM5.30567 18.2573C5.27743 18.321 5.17721 18.3402 5.08599 18.2964C4.99297 18.2546 4.9408 18.1678 4.97084 18.104C4.99848 18.0384 5.09891 18.02 5.19162 18.064C5.28474 18.1059 5.33781 18.1935 5.30567 18.2573ZM5.93608 18.8199C5.875 18.8765 5.75545 18.8502 5.67434 18.7607C5.59053 18.6714 5.57481 18.5518 5.63679 18.4943C5.69987 18.4377 5.81572 18.4642 5.89973 18.5535C5.98364 18.6439 5.99986 18.7626 5.93608 18.8199ZM6.36863 19.5396C6.29003 19.5942 6.16166 19.543 6.08226 19.429C6.00376 19.3151 6.00376 19.1784 6.08397 19.1237C6.16357 19.0689 6.29003 19.1181 6.37043 19.2313C6.44873 19.3471 6.44873 19.4838 6.36853 19.5397L6.36863 19.5396ZM7.09996 20.3732C7.02977 20.4507 6.88008 20.4298 6.77054 20.3241C6.6585 20.2208 6.62736 20.0742 6.69785 19.9967C6.76894 19.919 6.91943 19.9408 7.02978 20.0457C7.14092 20.1489 7.17496 20.2966 7.09996 20.3732ZM8.04537 20.6545C8.01433 20.7549 7.87015 20.8006 7.72506 20.7579C7.58008 20.714 7.48526 20.5964 7.51449 20.495C7.54463 20.3939 7.68942 20.3464 7.83561 20.3921C7.98039 20.4357 8.07551 20.5524 8.04537 20.6545ZM9.12115 20.774C9.12475 20.8796 9.0017 20.9672 8.8493 20.9692C8.69611 20.9726 8.57205 20.8871 8.57034 20.783C8.57034 20.6763 8.6907 20.5895 8.84399 20.5869C8.99639 20.5839 9.12115 20.6688 9.12115 20.774ZM10.178 20.7334C10.1962 20.8365 10.0904 20.9425 9.93899 20.9707C9.7903 20.9979 9.65253 20.9342 9.6336 20.8319C9.61518 20.7262 9.72302 20.6203 9.87151 20.5929C10.0231 20.5666 10.1587 20.6286 10.178 20.7334Z" fill="#0A84FF"/>
</svg>
