<svg width="31" height="30" viewBox="0 0 31 30" fill="none" xmlns="http://www.w3.org/2000/svg">
<path d="M15.3798 0C6.88685 0 0 6.88565 0 15.3798C0 22.175 4.40676 27.94 10.5176 29.9736C11.2863 30.116 11.5685 29.64 11.5685 29.2337C11.5685 28.867 11.5541 27.6555 11.5476 26.3705C7.26894 27.3007 6.3661 24.5558 6.3661 24.5558C5.66645 22.7781 4.65836 22.3053 4.65836 22.3053C3.26301 21.3508 4.76361 21.3705 4.76361 21.3705C6.30795 21.4789 7.12115 22.9554 7.12115 22.9554C8.49294 25.3065 10.7191 24.6268 11.5967 24.2338C11.7348 23.2399 12.1334 22.5613 12.5732 22.1772C9.15715 21.7884 5.56612 20.4696 5.56612 14.5766C5.56612 12.8974 6.16689 11.5254 7.1507 10.4483C6.99102 10.0609 6.46463 8.49678 7.29969 6.37824C7.29969 6.37824 8.59123 5.96491 11.5303 7.95477C12.7571 7.61402 14.0728 7.44316 15.3798 7.43727C16.6868 7.44316 18.0036 7.6139 19.2326 7.95477C22.1681 5.96503 23.4578 6.37836 23.4578 6.37836C24.2949 8.49666 23.7683 10.0611 23.6086 10.4483C24.5947 11.5254 25.1914 12.8974 25.1914 14.5766C25.1914 20.4837 21.5935 21.7843 18.1688 22.1651C18.7204 22.6424 19.212 23.5784 19.212 25.0132C19.212 27.071 19.1942 28.7272 19.1942 29.2337C19.1942 29.6431 19.471 30.1226 20.2506 29.9715C26.3581 27.9357 30.7593 22.1728 30.7593 15.3799C30.7593 6.88564 23.8734 0 15.3798 0ZM5.76029 21.9088C5.7264 21.9852 5.60613 22.0082 5.49667 21.9557C5.38505 21.9056 5.32245 21.8014 5.35849 21.7247C5.39165 21.646 5.51217 21.6241 5.62343 21.6768C5.73517 21.727 5.79886 21.8322 5.76029 21.9088ZM6.51677 22.5838C6.44348 22.6518 6.30002 22.6202 6.20269 22.5128C6.10212 22.4057 6.08326 22.2622 6.15763 22.1932C6.23333 22.1252 6.37235 22.1571 6.47316 22.2642C6.57385 22.3727 6.59331 22.5151 6.51677 22.5838ZM7.03584 23.4475C6.94152 23.513 6.78748 23.4516 6.6922 23.3149C6.598 23.1781 6.598 23.0141 6.69424 22.9484C6.78976 22.8827 6.94152 22.9418 7.038 23.0775C7.13196 23.2166 7.13196 23.3806 7.03572 23.4476L7.03584 23.4475ZM7.91344 24.4478C7.82921 24.5408 7.64958 24.5158 7.51813 24.3889C7.38368 24.2649 7.34631 24.089 7.4309 23.996C7.51621 23.9028 7.6968 23.929 7.82921 24.0549C7.96258 24.1786 8.00343 24.3559 7.91344 24.4478ZM9.04793 24.7854C9.01068 24.9059 8.83766 24.9607 8.66356 24.9095C8.48958 24.8568 8.37579 24.7157 8.41088 24.594C8.44704 24.4727 8.62078 24.4157 8.79621 24.4705C8.96995 24.5229 9.0841 24.6629 9.04793 24.7854ZM10.3389 24.9288C10.3432 25.0555 10.1955 25.1607 10.0126 25.1631C9.82881 25.1671 9.67994 25.0645 9.6779 24.9396C9.6779 24.8116 9.82232 24.7074 10.0063 24.7043C10.1891 24.7007 10.3389 24.8026 10.3389 24.9288ZM11.6071 24.8801C11.6289 25.0039 11.5019 25.131 11.3203 25.1649C11.1418 25.1974 10.9765 25.121 10.9538 24.9983C10.9317 24.8714 11.0611 24.7443 11.2393 24.7115C11.4212 24.6799 11.5839 24.7543 11.6071 24.8801Z" fill="black"/>
</svg>
