<svg width="25" height="25" viewBox="0 0 25 25" fill="none" xmlns="http://www.w3.org/2000/svg">
<path d="M12.5 0C9.10417 0 8.68021 0.015625 7.34687 0.075C6.01562 0.1375 5.10937 0.346875 4.3125 0.65625C3.49062 0.975 2.79271 1.40312 2.09792 2.09792C1.40312 2.79271 0.973958 3.48958 0.65625 4.3125C0.346875 5.10937 0.136458 6.01562 0.075 7.34687C0.0125 8.68021 0 9.10417 0 12.5C0 15.8958 0.015625 16.3198 0.075 17.6531C0.1375 18.9833 0.346875 19.8906 0.65625 20.6875C0.975 21.5083 1.40312 22.2073 2.09792 22.9021C2.79271 23.5958 3.48958 24.026 4.3125 24.3437C5.11042 24.6521 6.01667 24.8635 7.34687 24.925C8.68021 24.9875 9.10417 25 12.5 25C15.8958 25 16.3198 24.9844 17.6531 24.925C18.9833 24.8625 19.8906 24.6521 20.6875 24.3437C21.5083 24.025 22.2073 23.5958 22.9021 22.9021C23.5958 22.2073 24.026 21.5115 24.3437 20.6875C24.6521 19.8906 24.8635 18.9833 24.925 17.6531C24.9875 16.3198 25 15.8958 25 12.5C25 9.10417 24.9844 8.68021 24.925 7.34687C24.8625 6.01667 24.6521 5.10833 24.3437 4.3125C24.025 3.49062 23.5958 2.79271 22.9021 2.09792C22.2073 1.40312 21.5115 0.973958 20.6875 0.65625C19.8906 0.346875 18.9833 0.136458 17.6531 0.075C16.3198 0.0125 15.8958 0 12.5 0ZM12.5 2.25C15.8365 2.25 16.2344 2.26667 17.5521 2.32396C18.7708 2.38125 19.4323 2.58333 19.8719 2.75625C20.4573 2.98229 20.8719 3.25312 21.3115 3.68958C21.7479 4.12708 22.0187 4.54271 22.2448 5.12812C22.4156 5.56771 22.6198 6.22917 22.675 7.44792C22.7344 8.76667 22.7479 9.1625 22.7479 12.5C22.7479 15.8375 22.7323 16.2344 22.6708 17.5521C22.6073 18.7708 22.4042 19.4323 22.2323 19.8719C21.999 20.4573 21.7333 20.8719 21.2958 21.3115C20.8594 21.7479 20.4375 22.0187 19.8583 22.2448C19.4208 22.4156 18.749 22.6198 17.5302 22.675C16.2031 22.7344 15.8125 22.7479 12.4687 22.7479C9.12396 22.7479 8.73333 22.7323 7.40729 22.6708C6.1875 22.6073 5.51562 22.4042 5.07812 22.2323C4.48542 21.999 4.07812 21.7333 3.64167 21.2958C3.20312 20.8594 2.92292 20.4375 2.70417 19.8583C2.53229 19.4208 2.33021 18.749 2.26667 17.5302C2.21979 16.2177 2.20312 15.8125 2.20312 12.4844C2.20312 9.15521 2.21979 8.74896 2.26667 7.42083C2.33021 6.20208 2.53229 5.53125 2.70417 5.09375C2.92292 4.5 3.20312 4.09375 3.64167 3.65521C4.07812 3.21875 4.48542 2.9375 5.07812 2.71979C5.51562 2.54687 6.17292 2.34375 7.39167 2.28125C8.71979 2.23437 9.11042 2.21875 12.4531 2.21875L12.5 2.25V2.25ZM12.5 6.08125C8.95312 6.08125 6.08125 8.95625 6.08125 12.5C6.08125 16.0469 8.95625 18.9187 12.5 18.9187C16.0469 18.9187 18.9187 16.0437 18.9187 12.5C18.9187 8.95312 16.0437 6.08125 12.5 6.08125ZM12.5 16.6667C10.1979 16.6667 8.33333 14.8021 8.33333 12.5C8.33333 10.1979 10.1979 8.33333 12.5 8.33333C14.8021 8.33333 16.6667 10.1979 16.6667 12.5C16.6667 14.8021 14.8021 16.6667 12.5 16.6667ZM20.6729 5.82812C20.6729 6.65625 20 7.32812 19.1729 7.32812C18.3448 7.32812 17.6729 6.65521 17.6729 5.82812C17.6729 5.00104 18.3458 4.32917 19.1729 4.32917C19.999 4.32812 20.6729 5.00104 20.6729 5.82812Z" fill="#0A84FF"/>
</svg>
