<svg width="40" height="37" viewBox="0 0 40 37" fill="none" xmlns="http://www.w3.org/2000/svg">
<path d="M17.3913 20.8696L11.3043 15.6522C11.3043 15.6522 12.1739 14.3478 13.4783 13.0435C14.7826 11.7391 15.8574 11.433 17.3913 10.4348C20.4443 8.4487 23.0435 0 26.9565 0L17.3913 20.8696Z" fill="url(#paint0_linear_6_277)"/>
<path d="M8.69565 26.1443L0 20L11.3043 15.6522L17.6322 20.4043L11.3043 25.2748L8.69565 26.1443Z" fill="url(#paint1_linear_6_277)"/>
<path d="M26.9565 0C31.3043 0 38.2609 23.4783 40 29.5652C40 29.5652 33.8983 23.8 30.4348 24.3478C26.9713 24.8957 25.6783 30.0417 21.9783 33.7009C19.5652 36.087 17.3913 36.5217 17.3913 36.5217C17.3913 36.5217 17.2122 29.4574 13.0435 26.9565C10.8696 25.6522 8.69565 26.087 8.69565 26.087C8.69565 26.087 13.9557 23.5643 16.9339 18.9791C19.9122 14.3939 23.913 0 26.9565 0Z" fill="url(#paint2_linear_6_277)"/>
<defs>
<linearGradient id="paint0_linear_6_277" x1="18.8217" y1="6.85304" x2="22.3974" y2="18.1339" gradientUnits="userSpaceOnUse">
<stop stop-color="#4ADDDF"/>
<stop offset="0.699" stop-color="#3F5352"/>
<stop offset="0.863" stop-color="#442729"/>
</linearGradient>
<linearGradient id="paint1_linear_6_277" x1="0" y1="20.8983" x2="31.9783" y2="20.8983" gradientUnits="userSpaceOnUse">
<stop stop-color="#4ADDDF"/>
<stop offset="0.792" stop-color="#3F5352"/>
<stop offset="1" stop-color="#442729"/>
</linearGradient>
<linearGradient id="paint2_linear_6_277" x1="8.69565" y1="18.2609" x2="40" y2="18.2609" gradientUnits="userSpaceOnUse">
<stop offset="0.206" stop-color="#53140F"/>
<stop offset="0.3" stop-color="#84360F"/>
<stop offset="0.413" stop-color="#B85B10"/>
<stop offset="0.511" stop-color="#DF7610"/>
<stop offset="0.59" stop-color="#F68710"/>
<stop offset="0.639" stop-color="#FF8D10"/>
<stop offset="0.729" stop-color="#FD8A10"/>
<stop offset="0.8" stop-color="#F58010"/>
<stop offset="0.865" stop-color="#E86F10"/>
<stop offset="0.925" stop-color="#D65811"/>
<stop offset="0.982" stop-color="#C03A11"/>
<stop offset="1" stop-color="#B72F11"/>
</linearGradient>
</defs>
</svg>
