<svg width="35" height="32" viewBox="0 0 35 32" fill="none" xmlns="http://www.w3.org/2000/svg">
<path d="M17.5 23.8501C7.68478 23.8501 0 20.5023 0 16.2414C0 11.9806 7.68478 8.63274 17.5 8.63274C27.3152 8.63274 35 11.9806 35 16.2414C35 20.5023 27.3152 23.8501 17.5 23.8501ZM17.5 10.1545C7.91304 10.1545 1.52174 13.274 1.52174 16.2414C1.52174 19.2088 7.91304 22.3284 17.5 22.3284C27.087 22.3284 33.4783 19.2088 33.4783 16.2414C33.4783 13.274 27.087 10.1545 17.5 10.1545Z" fill="#80DEEA"/>
<path d="M10.7283 31.9153C9.96739 31.9153 9.35869 31.7632 8.75 31.3827C5.02174 29.2523 6.01087 20.9588 10.8804 12.4371C13.163 8.48056 15.9783 5.13273 18.7174 3.0023C21.6848 0.719689 24.3478 0.0349062 26.1739 1.10012C28.0761 2.16534 28.7609 4.82838 28.3043 8.55664C27.8478 12.0566 26.3261 16.1653 24.0435 20.1219C21.7609 24.0784 18.9457 27.4262 16.2065 29.5566C14.2283 31.0784 12.3261 31.9153 10.7283 31.9153ZM24.2717 2.08925C23.0543 2.08925 21.4565 2.77404 19.7065 4.1436C17.1196 6.19795 14.4565 9.3936 12.25 13.1979C7.45652 21.4914 7 28.6436 9.51087 30.0893C10.8043 30.8501 12.9348 30.1653 15.2935 28.3393C17.8804 26.2849 20.5435 23.0893 22.75 19.2849C24.9565 15.4806 26.4022 11.6001 26.8587 8.32838C27.2391 5.28491 26.7826 3.15447 25.4891 2.3936C25.1087 2.24143 24.7283 2.08925 24.2717 2.08925Z" fill="#80DEEA"/>
<path d="M24.3478 31.9153C20.5435 31.9153 15.0652 27.274 10.9565 20.0458C6.01087 11.524 5.02174 3.23056 8.75 1.10013C12.4783 -1.03031 19.1739 3.91534 24.1196 12.4371C26.4022 16.3936 27.9239 20.5023 28.3804 24.0023C28.913 27.7306 28.1522 30.3175 26.25 31.4588C25.6413 31.7632 25.0326 31.9153 24.3478 31.9153ZM9.51087 2.3936C7 3.83926 7.45652 10.9914 12.25 19.2849C17.0435 27.5784 22.9783 31.5349 25.4891 30.0893C26.7826 29.3284 27.2391 27.198 26.8587 24.1545C26.4022 20.8827 24.9565 17.0023 22.75 13.198C17.9565 4.90447 12.0217 0.947953 9.51087 2.3936Z" fill="#80DEEA"/>
<path d="M17.5 19.2849C19.1809 19.2849 20.5435 17.9223 20.5435 16.2414C20.5435 14.5606 19.1809 13.198 17.5 13.198C15.8191 13.198 14.4565 14.5606 14.4565 16.2414C14.4565 17.9223 15.8191 19.2849 17.5 19.2849Z" fill="#80DEEA"/>
</svg>
