<svg width="30" height="31" viewBox="0 0 30 31" fill="none" xmlns="http://www.w3.org/2000/svg">
<path d="M28.0104 15.4023L29.9333 12.1451C30.0106 11.9827 30.0212 11.7962 29.9626 11.6284L26.1541 0.719498C26.0369 0.386584 25.688 0.197489 25.3498 0.280051L14.1558 3.00729C13.9428 3.06055 13.767 3.21236 13.6844 3.41744L12.4939 6.39768H8.86384C8.67474 6.39768 8.49097 6.47758 8.36313 6.61608L0.181431 15.4796C-0.0715837 15.7539 -0.0582666 16.18 0.210728 16.4357L8.79193 24.6174C8.9171 24.7399 9.08755 24.8065 9.26067 24.8065H13.1731L14.3662 27.7868C14.4541 28.0078 14.6512 28.165 14.8829 28.2049L26.7879 30.2503C26.8252 30.2583 26.8652 30.261 26.9025 30.261C27.2194 30.261 27.499 30.0426 27.5683 29.7257L29.9839 18.6596C30.0212 18.4891 29.9919 18.3107 29.8987 18.1589L28.0104 15.4023ZM12.4939 6.39768L22.1032 4.63723L17.0455 14.5794H5.56932L12.4939 6.39768ZM13.1757 24.8065L5.56932 17.3066H17.0455L23.0114 26.2847L13.1757 24.8065ZM25.4909 24.7373L19.7728 15.943L24.7718 6.00085L28.0104 15.405L25.4909 24.7373Z" fill="black"/>
</svg>
