<svg width="31" height="31" viewBox="0 0 31 31" fill="none" xmlns="http://www.w3.org/2000/svg">
<path d="M19.6249 15.375L25.0038 6.09375L27.6054 15.375L25.0038 24.668L19.6132 15.375H19.6249ZM16.9999 16.8984L22.3906 26.1797L13.0156 23.7773L6.23041 16.875H16.9882L16.9999 16.8984ZM22.3788 4.57031L16.9999 13.8633H6.24213L13.0038 6.97266L22.3788 4.57031ZM30.0546 12.2109L26.7851 0L14.5273 3.28125L12.7109 6.46875L9.03119 6.44531L0.0663452 15.375L9.03119 24.3164L12.7109 24.293L14.5273 27.4805L26.7734 30.75L30.0546 18.5391L28.1913 15.375L30.0663 12.2109H30.0546Z" fill="#222C37"/>
</svg>
